<svg width="16" height="16" viewBox="0 0 16 16" fill="none" xmlns="http://www.w3.org/2000/svg">
<path d="M8.66683 7.73331V5.33331C8.66683 5.14442 8.60283 4.9862 8.47483 4.85865C8.34683 4.73109 8.18861 4.66709 8.00016 4.66665C7.81172 4.6662 7.6535 4.7302 7.5255 4.85865C7.3975 4.98709 7.3335 5.14531 7.3335 5.33331V7.98331C7.3335 8.0722 7.35016 8.15842 7.3835 8.24198C7.41683 8.32554 7.46683 8.40042 7.5335 8.46665L9.7335 10.6666C9.85572 10.7889 10.0113 10.85 10.2002 10.85C10.3891 10.85 10.5446 10.7889 10.6668 10.6666C10.7891 10.5444 10.8502 10.3889 10.8502 10.2C10.8502 10.0111 10.7891 9.85554 10.6668 9.73331L8.66683 7.73331ZM8.00016 14.6666C7.07794 14.6666 6.21128 14.4915 5.40016 14.1413C4.58905 13.7911 3.8835 13.3162 3.2835 12.7166C2.6835 12.1171 2.20861 11.4115 1.85883 10.6C1.50905 9.78842 1.33394 8.92176 1.3335 7.99998C1.33305 7.0782 1.50816 6.21154 1.85883 5.39998C2.2095 4.58842 2.68439 3.88287 3.2835 3.28331C3.88261 2.68376 4.58816 2.20887 5.40016 1.85865C6.21216 1.50842 7.07883 1.33331 8.00016 1.33331C8.9215 1.33331 9.78816 1.50842 10.6002 1.85865C11.4122 2.20887 12.1177 2.68376 12.7168 3.28331C13.3159 3.88287 13.7911 4.58842 14.1422 5.39998C14.4933 6.21154 14.6682 7.0782 14.6668 7.99998C14.6655 8.92176 14.4904 9.78842 14.1415 10.6C13.7926 11.4115 13.3177 12.1171 12.7168 12.7166C12.1159 13.3162 11.4104 13.7913 10.6002 14.142C9.78994 14.4926 8.92327 14.6675 8.00016 14.6666ZM8.00016 13.3333C9.47794 13.3333 10.7364 12.814 11.7755 11.7753C12.8146 10.7366 13.3339 9.4782 13.3335 7.99998C13.3331 6.52176 12.8137 5.26331 11.7755 4.22465C10.7373 3.18598 9.47883 2.66665 8.00016 2.66665C6.5215 2.66665 5.26305 3.1862 4.22483 4.22531C3.18661 5.26442 2.66727 6.52265 2.66683 7.99998C2.66639 9.47731 3.18594 10.7358 4.2255 11.7753C5.26505 12.8149 6.52327 13.3342 8.00016 13.3333Z" fill="#737373"/>
</svg>
