<svg width="28" height="28" viewBox="0 0 28 28" fill="none" xmlns="http://www.w3.org/2000/svg">
<path d="M14 19.8333C14.3306 19.8333 14.6078 19.7213 14.8318 19.4973C15.0558 19.2733 15.1674 18.9964 15.1667 18.6667C15.1659 18.3369 15.0539 18.06 14.8307 17.836C14.6074 17.612 14.3306 17.5 14 17.5C13.6694 17.5 13.3926 17.612 13.1693 17.836C12.9461 18.06 12.8341 18.3369 12.8333 18.6667C12.8326 18.9964 12.9446 19.2737 13.1693 19.4985C13.3941 19.7233 13.671 19.8349 14 19.8333ZM14 15.1667C14.3306 15.1667 14.6078 15.0547 14.8318 14.8307C15.0558 14.6067 15.1674 14.3298 15.1667 14V9.33333C15.1667 9.00278 15.0547 8.72589 14.8307 8.50267C14.6067 8.27944 14.3298 8.16744 14 8.16667C13.6702 8.16589 13.3933 8.27789 13.1693 8.50267C12.9453 8.72744 12.8333 9.00433 12.8333 9.33333V14C12.8333 14.3306 12.9453 14.6078 13.1693 14.8318C13.3933 15.0558 13.6702 15.1674 14 15.1667ZM10.5875 24.5C10.2764 24.5 9.98005 24.4417 9.6985 24.325C9.41694 24.2083 9.16883 24.0431 8.95417 23.8292L4.17083 19.0458C3.95694 18.8319 3.79167 18.5838 3.675 18.3015C3.55833 18.0192 3.5 17.7232 3.5 17.4137V10.5887C3.5 10.2776 3.55833 9.98122 3.675 9.69967C3.79167 9.41811 3.95694 9.17 4.17083 8.95533L8.95417 4.172C9.16806 3.95811 9.41617 3.79283 9.6985 3.67617C9.98083 3.5595 10.2772 3.50078 10.5875 3.5H17.4125C17.7236 3.5 18.0203 3.55833 18.3027 3.675C18.585 3.79167 18.8327 3.95694 19.0458 4.17083L23.8292 8.95417C24.0431 9.16806 24.2083 9.41617 24.325 9.6985C24.4417 9.98083 24.5 10.2772 24.5 10.5875V17.4125C24.5 17.7236 24.4417 18.0203 24.325 18.3027C24.2083 18.585 24.0431 18.8327 23.8292 19.0458L19.0458 23.8292C18.8319 24.0431 18.5838 24.2083 18.3015 24.325C18.0192 24.4417 17.7228 24.5 17.4125 24.5H10.5875ZM10.6167 22.1667H17.3833L22.1667 17.3833V10.6167L17.3833 5.83333H10.6167L5.83333 10.6167V17.3833L10.6167 22.1667Z" fill="#737373"/>
</svg>
