<svg width="28" height="28" viewBox="0 0 28 28" fill="none" xmlns="http://www.w3.org/2000/svg">
<path d="M5.8335 15.1667C5.8335 14.5478 6.07933 13.9543 6.51691 13.5168C6.9545 13.0792 7.54799 12.8333 8.16683 12.8333H19.8335C20.4523 12.8333 21.0458 13.0792 21.4834 13.5168C21.921 13.9543 22.1668 14.5478 22.1668 15.1667V22.1667C22.1668 22.7855 21.921 23.379 21.4834 23.8166C21.0458 24.2542 20.4523 24.5 19.8335 24.5H8.16683C7.54799 24.5 6.9545 24.2542 6.51691 23.8166C6.07933 23.379 5.8335 22.7855 5.8335 22.1667V15.1667Z" stroke="#737373" stroke-width="2.5" stroke-linecap="round" stroke-linejoin="round"/>
<path d="M9.3335 12.8333V8.16667C9.3335 6.92899 9.82516 5.742 10.7003 4.86683C11.5755 3.99167 12.7625 3.5 14.0002 3.5C15.2378 3.5 16.4248 3.99167 17.3 4.86683C18.1752 5.742 18.6668 6.92899 18.6668 8.16667V12.8333M12.8335 18.6667C12.8335 18.9761 12.9564 19.2728 13.1752 19.4916C13.394 19.7104 13.6907 19.8333 14.0002 19.8333C14.3096 19.8333 14.6063 19.7104 14.8251 19.4916C15.0439 19.2728 15.1668 18.9761 15.1668 18.6667C15.1668 18.3572 15.0439 18.0605 14.8251 17.8417C14.6063 17.6229 14.3096 17.5 14.0002 17.5C13.6907 17.5 13.394 17.6229 13.1752 17.8417C12.9564 18.0605 12.8335 18.3572 12.8335 18.6667Z" stroke="#737373" stroke-width="2.5" stroke-linecap="round" stroke-linejoin="round"/>
</svg>
