<svg width="28" height="28" viewBox="0 0 28 28" fill="none" xmlns="http://www.w3.org/2000/svg">
<path d="M14 24.5C11.0639 24.5 8.58006 23.4839 6.5485 21.4515C4.51694 19.4192 3.50078 16.9354 3.5 14C3.5 11.3167 4.375 8.98803 6.125 7.01403C7.875 5.04003 10.1111 3.88814 12.8333 3.55836C13.0861 3.51947 13.3097 3.55369 13.5042 3.66103C13.6986 3.76836 13.8542 3.90914 13.9708 4.08336C14.0875 4.25758 14.1509 4.46175 14.161 4.69586C14.1711 4.92997 14.098 5.15358 13.9417 5.36669C13.6111 5.87225 13.363 6.40697 13.1973 6.97086C13.0317 7.53475 12.9492 8.12781 12.95 8.75003C12.95 10.5 13.5625 11.9875 14.7875 13.2125C16.0125 14.4375 17.5 15.05 19.25 15.05C19.8528 15.05 20.4509 14.9625 21.0443 14.7875C21.6378 14.6125 22.1674 14.3695 22.6333 14.0584C22.8472 13.9222 23.0662 13.8592 23.2902 13.8694C23.5142 13.8795 23.7133 13.9327 23.8875 14.0292C24.0819 14.1264 24.2328 14.2722 24.3402 14.4667C24.4475 14.6611 24.4813 14.8945 24.4417 15.1667C24.1694 17.85 23.0273 20.0764 21.0152 21.8459C19.0031 23.6153 16.6647 24.5 14 24.5ZM14 22.1667C15.7111 22.1667 17.2472 21.695 18.6083 20.7515C19.9694 19.8081 20.9611 18.5784 21.5833 17.0625C21.1944 17.1597 20.8056 17.2375 20.4167 17.2959C20.0278 17.3542 19.6389 17.3834 19.25 17.3834C16.8583 17.3834 14.8213 16.5422 13.139 14.8599C11.4567 13.1775 10.6159 11.1409 10.6167 8.75003C10.6167 8.36114 10.6458 7.97225 10.7042 7.58336C10.7625 7.19447 10.8403 6.80558 10.9375 6.41669C9.42083 7.03892 8.19078 8.03058 7.24733 9.39169C6.30389 10.7528 5.83256 12.2889 5.83333 14C5.83333 16.2556 6.63056 18.1806 8.225 19.775C9.81944 21.3695 11.7444 22.1667 14 22.1667Z" fill="#737373"/>
</svg>
