<svg width="28" height="28" viewBox="0 0 28 28" fill="none" xmlns="http://www.w3.org/2000/svg">
<path d="M23.1875 5.09961C24.9608 5.09961 26.4004 6.53916 26.4004 8.3125V19.6875C26.4004 20.5395 26.0614 21.3565 25.459 21.959C24.8565 22.5614 24.0395 22.9004 23.1875 22.9004H4.8125C3.96049 22.9004 3.14348 22.5614 2.54102 21.959C1.93856 21.3565 1.59961 20.5395 1.59961 19.6875V8.3125C1.59961 6.53916 3.03916 5.09961 4.8125 5.09961H23.1875ZM4.8125 7.15039C4.50419 7.15039 4.20825 7.27222 3.99023 7.49023C3.77222 7.70825 3.65039 8.00419 3.65039 8.3125V19.6875C3.65039 20.3292 4.17084 20.8496 4.8125 20.8496H23.1875C23.4958 20.8496 23.7918 20.7278 24.0098 20.5098C24.2278 20.2918 24.3496 19.9958 24.3496 19.6875V8.3125C24.3496 8.00419 24.2278 7.70825 24.0098 7.49023C23.7918 7.27222 23.4958 7.15039 23.1875 7.15039H4.8125ZM9.625 10.3496C10.593 10.3496 11.5215 10.7344 12.2061 11.4189C12.8906 12.1035 13.2754 13.032 13.2754 14C13.2754 14.968 12.8906 15.8965 12.2061 16.5811C11.5215 17.2656 10.593 17.6504 9.625 17.6504C8.65696 17.6504 7.72845 17.2656 7.04395 16.5811C6.35944 15.8965 5.97461 14.968 5.97461 14C5.97461 13.032 6.35944 12.1035 7.04395 11.4189C7.72845 10.7344 8.65696 10.3496 9.625 10.3496ZM21.875 15.5996C22.1468 15.5996 22.4074 15.7082 22.5996 15.9004C22.7918 16.0926 22.9004 16.3532 22.9004 16.625C22.9004 16.8968 22.7918 17.1574 22.5996 17.3496C22.4074 17.5418 22.1468 17.6504 21.875 17.6504H16.625C16.3532 17.6504 16.0926 17.5418 15.9004 17.3496C15.7082 17.1574 15.5996 16.8968 15.5996 16.625C15.5996 16.3532 15.7082 16.0926 15.9004 15.9004C16.0926 15.7082 16.3532 15.5996 16.625 15.5996H21.875ZM9.625 12.4004C9.20065 12.4004 8.79322 12.5681 8.49316 12.8682C8.19311 13.1682 8.02539 13.5757 8.02539 14C8.02539 14.4243 8.19311 14.8318 8.49316 15.1318C8.79322 15.4319 9.20065 15.5996 9.625 15.5996C10.0493 15.5996 10.4568 15.4319 10.7568 15.1318C11.0569 14.8318 11.2246 14.4243 11.2246 14C11.2246 13.5757 11.0569 13.1682 10.7568 12.8682C10.4568 12.5681 10.0493 12.4004 9.625 12.4004ZM21.875 10.3496C22.1468 10.3496 22.4074 10.4582 22.5996 10.6504C22.7918 10.8426 22.9004 11.1032 22.9004 11.375C22.9004 11.6468 22.7918 11.9074 22.5996 12.0996C22.4074 12.2918 22.1468 12.4004 21.875 12.4004H16.625C16.3532 12.4004 16.0926 12.2918 15.9004 12.0996C15.7082 11.9074 15.5996 11.6468 15.5996 11.375C15.5996 11.1032 15.7082 10.8426 15.9004 10.6504C16.0926 10.4582 16.3532 10.3496 16.625 10.3496H21.875Z" fill="#737373" stroke="#737373" stroke-width="0.3"/>
</svg>
