<svg width="17" height="15" viewBox="0 0 17 15" fill="none" xmlns="http://www.w3.org/2000/svg">
<path d="M9.3418 0.149597C9.61313 0.149683 9.87335 0.257756 10.0654 0.449402L15.8994 6.28339L15.9668 6.35858C16.1161 6.54093 16.1992 6.77028 16.1992 7.008C16.1991 7.27937 16.0911 7.53956 15.8994 7.73163L10.0654 13.5656C9.97238 13.6643 9.86028 13.7438 9.73633 13.799C9.61076 13.8549 9.47531 13.8854 9.33789 13.8879C9.20026 13.8903 9.06318 13.8642 8.93555 13.8127C8.80805 13.7611 8.69197 13.6843 8.59473 13.5871C8.49752 13.4898 8.42065 13.3738 8.36914 13.2463C8.31771 13.1188 8.29254 12.9823 8.29492 12.8449C8.29735 12.7073 8.32777 12.5712 8.38379 12.4455C8.43981 12.3198 8.52044 12.2063 8.62109 12.1125L12.7012 8.03241H1.1748C0.903063 8.03241 0.642399 7.92469 0.450195 7.7326C0.258075 7.54048 0.149532 7.27968 0.149414 7.008C0.149414 6.73615 0.257971 6.47463 0.450195 6.28241C0.642395 6.09035 0.903083 5.9826 1.1748 5.9826H12.7012L8.61719 1.89862C8.42524 1.70643 8.31738 1.44564 8.31738 1.17401C8.31744 0.90246 8.42529 0.641541 8.61719 0.449402C8.80936 0.257578 9.07027 0.149597 9.3418 0.149597Z" fill="#737373" stroke="#737373" stroke-width="0.3"/>
</svg>
