<svg width="28" height="28" viewBox="0 0 28 28" fill="none" xmlns="http://www.w3.org/2000/svg">
<path d="M13.9418 21C14.3502 21 14.6955 20.8589 14.9778 20.5765C15.2602 20.2942 15.4009 19.9493 15.4002 19.5417C15.3994 19.1342 15.2586 18.7888 14.9778 18.5057C14.6971 18.2226 14.3517 18.0818 13.9418 18.0834C13.5319 18.0849 13.187 18.2261 12.907 18.5069C12.627 18.7877 12.4858 19.1326 12.4835 19.5417C12.4812 19.9508 12.6223 20.2962 12.907 20.5777C13.1917 20.8593 13.5366 21 13.9418 21ZM14.0002 25.6667C12.3863 25.6667 10.8696 25.3603 9.45016 24.7474C8.03072 24.1345 6.796 23.3034 5.746 22.2542C4.696 21.205 3.86494 19.9703 3.25283 18.55C2.64072 17.1298 2.33428 15.6132 2.3335 14C2.33272 12.3869 2.63916 10.8703 3.25283 9.45004C3.8665 8.02982 4.69755 6.7951 5.746 5.74587C6.79444 4.69665 8.02916 3.8656 9.45016 3.25271C10.8712 2.63982 12.3878 2.33337 14.0002 2.33337C15.6125 2.33337 17.1292 2.63982 18.5502 3.25271C19.9712 3.8656 21.2059 4.69665 22.2543 5.74587C23.3028 6.7951 24.1342 8.02982 24.7487 9.45004C25.3631 10.8703 25.6692 12.3869 25.6668 14C25.6645 15.6132 25.3581 17.1298 24.7475 18.55C24.1369 19.9703 23.3059 21.205 22.2543 22.2542C21.2028 23.3034 19.9681 24.1349 18.5502 24.7485C17.1323 25.3622 15.6156 25.6683 14.0002 25.6667ZM14.0002 23.3334C16.6057 23.3334 18.8127 22.4292 20.621 20.6209C22.4293 18.8125 23.3335 16.6056 23.3335 14C23.3335 11.3945 22.4293 9.18754 20.621 7.37921C18.8127 5.57087 16.6057 4.66671 14.0002 4.66671C11.3946 4.66671 9.18766 5.57087 7.37933 7.37921C5.571 9.18754 4.66683 11.3945 4.66683 14C4.66683 16.6056 5.571 18.8125 7.37933 20.6209C9.18766 22.4292 11.3946 23.3334 14.0002 23.3334ZM14.1168 8.98337C14.6029 8.98337 15.0261 9.13893 15.3862 9.45004C15.7463 9.76115 15.9259 10.15 15.9252 10.6167C15.9252 11.0445 15.7941 11.4237 15.532 11.7542C15.2699 12.0848 14.9732 12.3959 14.6418 12.6875C14.1946 13.0764 13.8011 13.5042 13.4612 13.9709C13.1213 14.4375 12.9509 14.9625 12.9502 15.5459C12.9502 15.8181 13.0524 16.0468 13.257 16.2319C13.4616 16.417 13.6996 16.5092 13.971 16.5084C14.2627 16.5084 14.5108 16.4112 14.7153 16.2167C14.9199 16.0223 15.0509 15.7792 15.1085 15.4875C15.1863 15.0792 15.3613 14.7148 15.6335 14.3944C15.9057 14.0739 16.1974 13.7675 16.5085 13.475C16.9557 13.0473 17.3399 12.5806 17.6612 12.075C17.9824 11.5695 18.1426 11.0056 18.1418 10.3834C18.1418 9.39171 17.7386 8.5801 16.932 7.94854C16.1254 7.31699 15.1871 7.00082 14.1168 7.00004C13.3779 7.00004 12.6733 7.1556 12.0028 7.46671C11.3324 7.77782 10.8218 8.25421 10.471 8.89587C10.3349 9.12921 10.2913 9.37732 10.3403 9.64021C10.3893 9.9031 10.5204 10.1022 10.7335 10.2375C11.0057 10.3931 11.2877 10.4417 11.5793 10.3834C11.871 10.325 12.1141 10.1598 12.3085 9.88754C12.5224 9.59587 12.7899 9.37226 13.1112 9.21671C13.4324 9.06115 13.7676 8.98337 14.1168 8.98337Z" fill="#737373"/>
</svg>
