<svg width="28" height="28" viewBox="0 0 28 28" fill="none" xmlns="http://www.w3.org/2000/svg">
<path d="M7.83984 19.4133C8.13688 19.3267 8.45617 19.3616 8.72748 19.5104C8.99878 19.6591 9.19987 19.9096 9.2865 20.2066C9.37314 20.5037 9.33823 20.823 9.18945 21.0943C9.04067 21.3656 8.79021 21.5667 8.49317 21.6533C7.90984 21.8236 7.48984 22.0033 7.22034 22.1666C7.498 22.3335 7.93667 22.5201 8.54567 22.694C9.89317 23.079 11.8217 23.3333 13.9998 23.3333C16.178 23.3333 18.1065 23.079 19.454 22.694C20.0642 22.5201 20.5017 22.3335 20.7793 22.1666C20.511 22.0033 20.091 21.8236 19.5077 21.6533C19.2153 21.5629 18.9702 21.3611 18.8251 21.0917C18.6801 20.8222 18.6468 20.5065 18.7323 20.2126C18.8179 19.9188 19.0155 19.6703 19.2825 19.5208C19.5495 19.3713 19.8646 19.3327 20.1598 19.4133C20.9392 19.6408 21.6532 19.9325 22.2015 20.307C22.709 20.6558 23.3332 21.2636 23.3332 22.1666C23.3332 23.0801 22.6938 23.6926 22.1782 24.0415C21.6205 24.4171 20.8913 24.71 20.0945 24.9375C18.4868 25.3983 16.3332 25.6666 13.9998 25.6666C11.6665 25.6666 9.51284 25.3983 7.90517 24.9375C7.10834 24.71 6.37917 24.4171 5.8215 24.0415C5.30584 23.6915 4.6665 23.0801 4.6665 22.1666C4.6665 21.2636 5.29067 20.6558 5.79817 20.307C6.3465 19.9325 7.0605 19.6408 7.83984 19.4133ZM13.9998 2.33331C16.3205 2.33331 18.5461 3.25519 20.187 4.89613C21.828 6.53707 22.7498 8.76267 22.7498 11.0833C22.7498 14.0793 21.1165 16.5153 19.4248 18.2466C18.7524 18.9279 18.0297 19.5577 17.263 20.1308C16.57 20.6511 14.9857 21.6265 14.9857 21.6265C14.6852 21.7973 14.3455 21.8871 13.9998 21.8871C13.6542 21.8871 13.3145 21.7973 13.014 21.6265C12.2277 21.1706 11.4675 20.6712 10.7367 20.1308C9.96881 19.5591 9.24607 18.9292 8.57484 18.2466C6.88317 16.5153 5.24984 14.0793 5.24984 11.0833C5.24984 8.76267 6.17171 6.53707 7.81265 4.89613C9.4536 3.25519 11.6792 2.33331 13.9998 2.33331ZM13.9998 4.66665C12.298 4.66665 10.6659 5.34269 9.46257 6.54604C8.25921 7.7494 7.58317 9.38151 7.58317 11.0833C7.58317 13.202 8.74517 15.0826 10.2432 16.6133C11.3702 17.766 12.6115 18.6433 13.4713 19.1823L13.9998 19.502L14.5283 19.1823C15.387 18.6433 16.6295 17.766 17.7565 16.6145C19.2545 15.0826 20.4165 13.2031 20.4165 11.0833C20.4165 9.38151 19.7405 7.7494 18.5371 6.54604C17.3337 5.34269 15.7016 4.66665 13.9998 4.66665ZM13.9998 7.58331C14.4595 7.58331 14.9146 7.67384 15.3392 7.84973C15.7639 8.02563 16.1497 8.28343 16.4747 8.60844C16.7997 8.93344 17.0575 9.31928 17.2334 9.74392C17.4093 10.1686 17.4998 10.6237 17.4998 11.0833C17.4998 11.5429 17.4093 11.9981 17.2334 12.4227C17.0575 12.8473 16.7997 13.2332 16.4747 13.5582C16.1497 13.8832 15.7639 14.141 15.3392 14.3169C14.9146 14.4928 14.4595 14.5833 13.9998 14.5833C13.0716 14.5833 12.1813 14.2146 11.525 13.5582C10.8686 12.9018 10.4998 12.0116 10.4998 11.0833C10.4998 10.1551 10.8686 9.26482 11.525 8.60844C12.1813 7.95206 13.0716 7.58331 13.9998 7.58331ZM13.9998 9.91665C13.6904 9.91665 13.3937 10.0396 13.1749 10.2584C12.9561 10.4771 12.8332 10.7739 12.8332 11.0833C12.8332 11.3927 12.9561 11.6895 13.1749 11.9083C13.3937 12.1271 13.6904 12.25 13.9998 12.25C14.3093 12.25 14.606 12.1271 14.8248 11.9083C15.0436 11.6895 15.1665 11.3927 15.1665 11.0833C15.1665 10.7739 15.0436 10.4771 14.8248 10.2584C14.606 10.0396 14.3093 9.91665 13.9998 9.91665Z" fill="#737373"/>
</svg>
