<svg width="28" height="28" viewBox="0 0 28 28" fill="none" xmlns="http://www.w3.org/2000/svg">
<path fill-rule="evenodd" clip-rule="evenodd" d="M12.2615 6.09C11.537 6.286 10.8604 6.59283 10.389 7.0175C9.1022 8.17833 8.57836 9.751 8.57836 12.586C8.57836 14.6067 7.42803 16.52 6.5997 17.759C6.42003 18.0297 6.36403 18.2875 6.37453 18.4427C6.3792 18.5127 6.39553 18.5453 6.40253 18.557C6.4072 18.5652 6.4212 18.5873 6.4772 18.6177C7.28453 19.0493 8.50253 19.3643 9.9107 19.5638C11.2661 19.7457 12.6323 19.8358 13.9999 19.8333C14.3093 19.8333 14.606 19.9562 14.8248 20.175C15.0436 20.3938 15.1665 20.6906 15.1665 21C15.1665 21.3094 15.0436 21.6062 14.8248 21.825C14.606 22.0438 14.3093 22.1667 13.9999 22.1667C12.6839 22.1667 11.1019 22.0908 9.58286 21.875C8.0872 21.6615 6.54603 21.2998 5.37703 20.6757C4.5172 20.216 4.10186 19.4157 4.04703 18.6002C3.99336 17.8313 4.25353 17.0718 4.65953 16.464C5.49603 15.211 6.24503 13.8285 6.24503 12.586C6.24503 9.4815 6.81903 7.0945 8.82686 5.285C9.6727 4.522 10.7355 4.08683 11.649 3.83833C12.415 3.62591 13.205 3.51221 13.9999 3.5C14.3093 3.5 14.606 3.62292 14.8248 3.84171C15.0436 4.0605 15.1665 4.35725 15.1665 4.66667C15.1665 4.97609 15.0436 5.27283 14.8248 5.49162C14.606 5.71042 14.3093 5.83333 13.9999 5.83333C13.6429 5.83333 12.9779 5.894 12.2615 6.09Z" fill="#737373"/>
<path fill-rule="evenodd" clip-rule="evenodd" d="M15.738 6.09C16.4625 6.286 17.1392 6.59283 17.6105 7.0175C18.8973 8.17833 19.4212 9.751 19.4212 12.586C19.4212 14.6067 20.5715 16.52 21.3998 17.759C21.5795 18.0297 21.6355 18.2875 21.625 18.4427C21.6256 18.4825 21.616 18.5219 21.597 18.557C21.5923 18.5652 21.5783 18.5873 21.5223 18.6177C20.715 19.0493 19.497 19.3643 18.0888 19.5638C16.7334 19.7457 15.3672 19.8358 13.9997 19.8333C13.6903 19.8333 13.3935 19.9562 13.1747 20.175C12.9559 20.3938 12.833 20.6906 12.833 21C12.833 21.3094 12.9559 21.6062 13.1747 21.825C13.3935 22.0438 13.6903 22.1667 13.9997 22.1667C15.3157 22.1667 16.8965 22.0908 18.4167 21.875C19.9123 21.6615 21.4535 21.2998 22.6225 20.6757C23.4823 20.216 23.8977 19.4157 23.9525 18.6002C24.0062 17.8313 23.746 17.0718 23.34 16.464C22.5035 15.211 21.7545 13.8285 21.7545 12.586C21.7545 9.4815 21.1805 7.0945 19.1727 5.285C18.3268 4.522 17.264 4.08683 16.3505 3.83833C15.5845 3.62591 14.7945 3.51221 13.9997 3.5C13.6903 3.5 13.3935 3.62292 13.1747 3.84171C12.9559 4.0605 12.833 4.35725 12.833 4.66667C12.833 4.97609 12.9559 5.27283 13.1747 5.49162C13.3935 5.71042 13.6903 5.83333 13.9997 5.83333C14.3567 5.83333 15.0217 5.894 15.738 6.09Z" fill="#737373"/>
<path d="M17.0882 4.29331C17.0882 5.10415 15.4595 4.34231 14.1715 4.34231C12.8835 4.34231 11.2549 5.10415 11.2549 4.29215C11.2549 3.48131 12.4215 2.33331 14.1715 2.33331C15.9215 2.33331 17.0882 3.48131 17.0882 4.29331Z" fill="#737373"/>
<path fill-rule="evenodd" clip-rule="evenodd" d="M11.6663 21C11.6663 21.6188 11.9122 22.2123 12.3498 22.6499C12.7873 23.0875 13.3808 23.3333 13.9997 23.3333C14.6185 23.3333 15.212 23.0875 15.6496 22.6499C16.0872 22.2123 16.333 21.6188 16.333 21H18.6663C18.6663 22.2377 18.1747 23.4247 17.2995 24.2998C16.4243 25.175 15.2374 25.6667 13.9997 25.6667C12.762 25.6667 11.575 25.175 10.6998 24.2998C9.82467 23.4247 9.33301 22.2377 9.33301 21H11.6663Z" fill="#737373"/>
</svg>
