<svg width="28" height="28" viewBox="0 0 28 28" fill="none" xmlns="http://www.w3.org/2000/svg">
<path d="M13.9998 25.55C13.8637 25.55 13.7373 25.5402 13.6207 25.5208C13.504 25.5014 13.3873 25.4722 13.2707 25.4333C10.6457 24.5583 8.55539 22.9397 6.99984 20.5776C5.44428 18.2155 4.6665 15.673 4.6665 12.95V7.43747C4.6665 6.95136 4.80767 6.51386 5.09 6.12497C5.37234 5.73608 5.73673 5.45413 6.18317 5.27913L13.1832 2.65413C13.4554 2.55691 13.7276 2.5083 13.9998 2.5083C14.2721 2.5083 14.5443 2.55691 14.8165 2.65413L21.8165 5.27913C22.2637 5.45413 22.6285 5.73608 22.9108 6.12497C23.1932 6.51386 23.3339 6.95136 23.3332 7.43747V12.95C23.3332 14.4083 23.1049 15.8328 22.6483 17.2235C22.1918 18.6141 21.5353 19.873 20.679 21C20.5234 21.2139 20.3146 21.3259 20.0525 21.336C19.7904 21.3461 19.5617 21.2535 19.3665 21.0583L16.3332 18.025C15.9832 18.2389 15.6091 18.3995 15.2108 18.5068C14.8126 18.6141 14.4089 18.6674 13.9998 18.6666C12.7165 18.6666 11.6179 18.2097 10.704 17.2958C9.79011 16.3819 9.33317 15.2833 9.33317 14C9.33317 12.7166 9.79011 11.618 10.704 10.7041C11.6179 9.79025 12.7165 9.3333 13.9998 9.3333C15.2832 9.3333 16.3818 9.79025 17.2957 10.7041C18.2096 11.618 18.6665 12.7166 18.6665 14C18.6665 14.4277 18.6132 14.8411 18.5067 15.2401C18.4001 15.6391 18.2395 16.023 18.0248 16.3916L19.7748 18.1416C20.1637 17.3444 20.4651 16.5083 20.679 15.6333C20.8929 14.7583 20.9998 13.8639 20.9998 12.95V7.43747L13.9998 4.81247L6.99984 7.43747V12.95C6.99984 15.3027 7.66095 17.4416 8.98317 19.3666C10.3054 21.2916 11.9776 22.575 13.9998 23.2166C14.3109 23.1194 14.6174 23.0027 14.9192 22.8666C15.2209 22.7305 15.5173 22.575 15.8082 22.4C16.0804 22.2444 16.3767 22.1861 16.6972 22.225C17.0176 22.2639 17.2754 22.4194 17.4707 22.6916C17.6659 22.9639 17.7289 23.2555 17.6597 23.5666C17.5904 23.8777 17.4205 24.1208 17.1498 24.2958C16.7609 24.5291 16.3721 24.7384 15.9832 24.9235C15.5943 25.1086 15.1762 25.2785 14.729 25.4333C14.6123 25.4722 14.4957 25.5014 14.379 25.5208C14.2623 25.5402 14.1359 25.55 13.9998 25.55ZM13.9998 16.3333C14.6415 16.3333 15.191 16.1046 15.6483 15.6473C16.1057 15.19 16.3339 14.6409 16.3332 14C16.3324 13.3591 16.1041 12.81 15.6483 12.3526C15.1926 11.8953 14.6431 11.6666 13.9998 11.6666C13.3566 11.6666 12.8075 11.8953 12.3525 12.3526C11.8975 12.81 11.6688 13.3591 11.6665 14C11.6642 14.6409 11.8928 15.1904 12.3525 15.6485C12.8122 16.1066 13.3613 16.3349 13.9998 16.3333Z" fill="#737373"/>
</svg>
