<svg width="28" height="28" viewBox="0 0 28 28" fill="none" xmlns="http://www.w3.org/2000/svg">
<path d="M15.47 3.49998C9.53162 3.33665 4.66662 8.10832 4.66662 14H2.57829C2.05329 14 1.79662 14.63 2.16995 14.9916L5.42495 18.2583C5.65829 18.4916 6.01995 18.4916 6.25329 18.2583L9.50829 14.9916C9.58891 14.9094 9.64338 14.8051 9.66483 14.692C9.68629 14.5788 9.67377 14.4619 9.62886 14.3558C9.58394 14.2498 9.50864 14.1594 9.41244 14.0961C9.31624 14.0327 9.20345 13.9993 9.08829 14H6.99995C6.99995 9.44998 10.71 5.77498 15.2833 5.83332C19.6233 5.89165 23.275 9.54332 23.3333 13.8833C23.3916 18.445 19.7166 22.1666 15.1666 22.1666C13.2883 22.1666 11.55 21.525 10.1733 20.44C9.94983 20.264 9.66946 20.1762 9.38551 20.1934C9.10157 20.2106 8.83385 20.3316 8.63329 20.5333C8.14329 21.0233 8.17829 21.8516 8.72662 22.2716C10.5597 23.721 12.8298 24.5065 15.1666 24.5C21.0583 24.5 25.83 19.635 25.6666 13.6966C25.515 8.22498 20.9416 3.65165 15.47 3.49998ZM14.875 9.33332C14.3966 9.33332 14 9.72998 14 10.2083V14.5016C14 14.91 14.2216 15.295 14.5716 15.505L18.2116 17.6633C18.6316 17.9083 19.1683 17.7683 19.4133 17.36C19.6583 16.94 19.5183 16.4033 19.11 16.1583L15.75 14.1633V10.1966C15.75 9.72998 15.3533 9.33332 14.875 9.33332Z" fill="#737373"/>
</svg>
