<svg width="28" height="28" viewBox="0 0 28 28" fill="none" xmlns="http://www.w3.org/2000/svg">
<path d="M10.5002 19.8333H17.5002M10.5002 16.3333H17.5002M15.1668 3.5H9.56683C8.26016 3.5 7.60683 3.5 7.1075 3.75433C6.66847 3.97803 6.31153 4.33497 6.08783 4.774C5.8335 5.27333 5.8335 5.92667 5.8335 7.23333V20.7667C5.8335 22.0733 5.8335 22.7267 6.08783 23.226C6.31153 23.665 6.66847 24.022 7.1075 24.2457C7.60566 24.5 8.259 24.5 9.56333 24.5H18.437C19.7413 24.5 20.3935 24.5 20.8917 24.2457C21.3315 24.0217 21.6885 23.6647 21.9125 23.226C22.1668 22.7267 22.1668 22.0757 22.1668 20.7713V10.8803L22.1657 10.5M15.1668 3.5C15.5005 3.5035 15.7105 3.51633 15.9112 3.56417C16.1492 3.6225 16.3778 3.71583 16.5867 3.84417C16.8223 3.98883 17.0242 4.19067 17.4267 4.59433L21.0737 8.24017C21.4773 8.64383 21.678 8.8445 21.8227 9.08017C21.951 9.29094 22.0443 9.51572 22.1027 9.7545C22.1493 9.95633 22.1622 10.1675 22.1657 10.5M15.1668 3.5V6.76667C15.1668 8.07333 15.1668 8.72667 15.4212 9.226C15.6449 9.66503 16.0018 10.022 16.4408 10.2457C16.939 10.5 17.5923 10.5 18.8967 10.5H22.1657" stroke="#737373" stroke-width="2.33333" stroke-linecap="round" stroke-linejoin="round"/>
</svg>
