<svg width="28" height="28" viewBox="0 0 28 28" fill="none" xmlns="http://www.w3.org/2000/svg">
<path d="M12.7748 14.8167L11.1415 13.1834C10.9082 12.95 10.6359 12.8334 10.3248 12.8334C10.0137 12.8334 9.7415 12.95 9.50817 13.1834C9.27484 13.4167 9.15817 13.694 9.15817 14.0152C9.15817 14.3364 9.27484 14.6133 9.50817 14.8459L11.9582 17.325C12.1915 17.5584 12.4637 17.675 12.7748 17.675C13.0859 17.675 13.3582 17.5584 13.5915 17.325L18.5498 12.3667C18.7832 12.1334 18.8998 11.8565 18.8998 11.536C18.8998 11.2156 18.7832 10.9383 18.5498 10.7042C18.3165 10.4701 18.0396 10.3534 17.7192 10.3542C17.3987 10.355 17.1214 10.4716 16.8873 10.7042L12.7748 14.8167ZM13.9998 25.55C13.8637 25.55 13.7373 25.5403 13.6207 25.5209C13.504 25.5014 13.3873 25.4722 13.2707 25.4334C10.6457 24.5584 8.55539 22.9398 6.99984 20.5777C5.44428 18.2156 4.6665 15.673 4.6665 12.95V7.43753C4.6665 6.95142 4.80767 6.51392 5.09 6.12503C5.37234 5.73614 5.73673 5.4542 6.18317 5.2792L13.1832 2.6542C13.4554 2.55697 13.7276 2.50836 13.9998 2.50836C14.2721 2.50836 14.5443 2.55697 14.8165 2.6542L21.8165 5.2792C22.2637 5.4542 22.6285 5.73614 22.9108 6.12503C23.1932 6.51392 23.3339 6.95142 23.3332 7.43753V12.95C23.3332 15.6723 22.5554 18.2148 20.9998 20.5777C19.4443 22.9406 17.354 24.5591 14.729 25.4334C14.6123 25.4722 14.4957 25.5014 14.379 25.5209C14.2623 25.5403 14.1359 25.55 13.9998 25.55ZM13.9998 23.2167C16.0221 22.575 17.6943 21.2917 19.0165 19.3667C20.3387 17.4417 20.9998 15.3028 20.9998 12.95V7.43753L13.9998 4.81253L6.99984 7.43753V12.95C6.99984 15.3028 7.66095 17.4417 8.98317 19.3667C10.3054 21.2917 11.9776 22.575 13.9998 23.2167Z" fill="#737373"/>
</svg>
