<svg width="36" height="36" viewBox="0 0 36 36" fill="none" xmlns="http://www.w3.org/2000/svg">
<path fill-rule="evenodd" clip-rule="evenodd" d="M17.8184 8.25002C16.3859 8.42552 15.0284 8.93402 14.4554 9.40502C11.1134 12.168 9.22636 15.8205 8.24686 19.005C7.82509 20.3541 7.54262 21.7429 7.40386 23.1495C7.35286 23.724 7.30636 24.3255 7.39336 24.9C7.96786 25.551 8.78086 26.0235 9.53536 26.4285C11.1119 27.276 13.4804 28.155 16.6649 28.509C18.4679 28.71 20.7449 28.824 22.8449 28.656C25.0244 28.4805 26.6954 28.023 27.5624 27.3285C29.0234 26.16 29.3924 24.7965 29.2589 23.6025C29.1164 22.3185 28.3949 21.2325 27.6689 20.748C26.4164 19.914 25.0064 19.83 23.6774 20.178C22.3094 20.538 21.1859 21.318 20.6549 21.957C20.5216 22.1178 20.3563 22.2489 20.1695 22.3421C19.9827 22.4353 19.7785 22.4884 19.57 22.4982C19.3614 22.5079 19.1532 22.474 18.9585 22.3987C18.7638 22.3233 18.587 22.2081 18.4394 22.0605C17.6144 21.2355 16.2119 20.9955 14.3324 22.248C14.1273 22.3849 13.8917 22.4692 13.6463 22.4934C13.4009 22.5175 13.1533 22.4808 12.9255 22.3865C12.6977 22.2921 12.4967 22.1431 12.3402 21.9526C12.1837 21.762 12.0766 21.5358 12.0284 21.294C11.5994 19.143 11.8229 16.857 12.2189 14.9715C12.6179 13.083 13.2179 11.4585 13.6589 10.5795C13.7836 10.3307 13.975 10.1215 14.2119 9.97527C14.4487 9.82906 14.7215 9.75162 14.9999 9.75162C15.2782 9.75162 15.551 9.82906 15.7878 9.97527C16.0247 10.1215 16.2162 10.3307 16.3409 10.5795C16.6454 11.1855 17.2019 11.7285 17.8499 11.9565C18.3524 11.64 18.7889 11.1975 19.1429 10.725C19.7939 9.85802 20.0114 9.03752 19.7219 8.31302C19.1339 8.10302 18.4229 8.17652 17.8184 8.25002ZM20.0429 5.30402C20.7689 5.44352 21.8294 5.80652 22.3409 6.82952C23.4614 9.07052 22.5359 11.2005 21.5429 12.525C20.8949 13.389 20.0609 14.202 19.0904 14.7C18.8879 14.805 18.4754 15 17.9999 15C17.1134 15 16.2449 14.5965 15.5324 14.0925C15.3974 14.5515 15.2669 15.0555 15.1544 15.5895C14.9319 16.6141 14.8113 17.6582 14.7944 18.7065C16.3739 18.1965 17.9894 18.2505 19.3814 19.0365C20.4275 18.215 21.6307 17.6162 22.9169 17.277C24.8669 16.7655 27.2069 16.836 29.3324 18.252C30.8549 19.2675 32.0084 21.18 32.2409 23.2725C32.4839 25.4535 31.7264 27.8385 29.4359 29.6715C27.8189 30.9645 25.3544 31.464 23.0864 31.6455C20.7389 31.8345 18.2594 31.7055 16.3349 31.491C12.7679 31.095 10.0289 30.099 8.11486 29.0715C6.85936 28.3965 5.14186 27.4635 4.59736 26.034C4.22986 25.065 4.32586 23.889 4.41586 22.881C4.53586 21.5595 4.82986 19.9095 5.38036 18.1215C6.47836 14.553 8.62786 10.3305 12.5444 7.09352C13.7489 6.09752 15.7649 5.47952 17.4524 5.27252C18.3224 5.16602 19.2374 5.15102 20.0429 5.30402Z" fill="#1F41BB"/>
</svg>
