<svg width="20" height="24" viewBox="0 0 20 24" fill="none" xmlns="http://www.w3.org/2000/svg">
<path d="M17.25 9.255C17.25 12.05 15.8742 14.2004 13.7812 15.6163C13.2937 15.9457 13.0499 16.1103 12.9297 16.2988C12.8105 16.4852 12.7683 16.7322 12.687 17.224L12.622 17.6064C12.479 18.4709 12.4064 18.9032 12.1031 19.1599C11.7997 19.4167 11.3621 19.4167 10.4857 19.4167H7.656C6.77958 19.4167 6.34192 19.4167 6.03858 19.1599C5.73525 18.9032 5.66375 18.4709 5.51858 17.6064L5.45575 17.224C5.37342 16.7333 5.33333 16.4873 5.21417 16.301C5.095 16.1147 4.85017 15.9478 4.36158 15.6142C2.29133 14.1983 1 12.0489 1 9.255C1 4.69742 4.63783 1 9.125 1C9.67086 0.999427 10.2154 1.0546 10.75 1.16467" stroke="#1F41BB" stroke-width="2" stroke-linecap="round" stroke-linejoin="round"/>
<path d="M11.2918 19.4167V20.5C11.2918 21.5216 11.2918 22.0318 10.9744 22.3492C10.657 22.6667 10.1467 22.6667 9.12516 22.6667C8.10358 22.6667 7.59333 22.6667 7.27591 22.3492C6.9585 22.0318 6.9585 21.5216 6.9585 20.5V19.4167M14.5418 1L14.8213 1.75508C15.1875 2.74525 15.3706 3.24033 15.7313 3.60108C16.0932 3.96292 16.5882 4.146 17.5784 4.51217L18.3335 4.79167L17.5784 5.07117C16.5882 5.43733 16.0932 5.62042 15.7324 5.98117C15.3706 6.343 15.1875 6.83808 14.8213 7.82825L14.5418 8.58333L14.2623 7.82825C13.8962 6.83808 13.7131 6.343 13.3523 5.98225C12.9905 5.62042 12.4954 5.43733 11.5052 5.07117L10.7502 4.79167L11.5052 4.51217C12.4954 4.146 12.9905 3.96292 13.3512 3.60217C13.7131 3.24033 13.8962 2.74525 14.2623 1.75508L14.5418 1Z" stroke="#1F41BB" stroke-width="2" stroke-linejoin="round"/>
</svg>
