<svg width="37" height="36" viewBox="0 0 37 36" fill="none" xmlns="http://www.w3.org/2000/svg">
<path d="M5.61054 30.903L15.1565 21.357M27.1775 17.112L24.32 25.686C24.2742 25.8232 24.1961 25.9472 24.0921 26.0478C23.9882 26.1483 23.8616 26.2223 23.723 26.2635L6.20604 31.4715C6.04822 31.5184 5.88058 31.5211 5.72134 31.4793C5.56211 31.4375 5.41739 31.3528 5.30293 31.2345C5.18847 31.1162 5.10866 30.9687 5.07218 30.8082C5.0357 30.6477 5.04395 30.4802 5.09604 30.324L10.784 13.263C10.8248 13.1405 10.8914 13.0282 10.9794 12.9338C11.0674 12.8393 11.1747 12.7649 11.294 12.7155L19.3745 9.38853C19.5388 9.32068 19.7195 9.30299 19.8938 9.3377C20.0681 9.3724 20.2283 9.45794 20.354 9.58353L26.96 16.191C27.0782 16.3092 27.1612 16.458 27.1996 16.6206C27.238 16.7833 27.2304 16.9535 27.1775 17.112Z" stroke="#1F41BB" stroke-width="2.3" stroke-linecap="round" stroke-linejoin="round"/>
<path d="M28.2711 4.77303L31.8171 8.31903C32.0836 8.57397 32.2965 8.87957 32.4432 9.21789C32.59 9.55622 32.6677 9.92045 32.6718 10.2892C32.6758 10.658 32.6062 11.0238 32.467 11.3653C32.3277 11.7068 32.1217 12.017 31.8609 12.2778C31.6001 12.5386 31.2899 12.7446 30.9484 12.8839C30.6069 13.0231 30.2411 13.0927 29.8723 13.0887C29.5035 13.0846 29.1393 13.0069 28.801 12.8601C28.4627 12.7134 28.1571 12.5005 27.9021 12.234L24.3546 8.68803C23.8543 8.16505 23.5786 7.46694 23.5866 6.74321C23.5946 6.01947 23.8857 5.32763 24.3974 4.81584C24.9092 4.30405 25.6011 4.01299 26.3248 4.00499C27.0485 3.99699 27.7481 4.27268 28.2711 4.77303Z" fill="#1F41BB" stroke="#1F41BB" stroke-width="2.3" stroke-linecap="round" stroke-linejoin="round"/>
<path d="M18.3381 18.174C18.1306 17.9591 17.8823 17.7877 17.6078 17.6698C17.3333 17.5519 17.038 17.4898 16.7393 17.4872C16.4405 17.4846 16.1442 17.5415 15.8677 17.6547C15.5912 17.7678 15.34 17.9349 15.1287 18.1461C14.9175 18.3574 14.7504 18.6086 14.6373 18.8851C14.5241 19.1616 14.4672 19.4579 14.4698 19.7567C14.4724 20.0554 14.5345 20.3507 14.6524 20.6252C14.7703 20.8997 14.9417 21.148 15.1566 21.3555C15.581 21.7654 16.1493 21.9922 16.7393 21.987C17.3292 21.9819 17.8935 21.7453 18.3107 21.3281C18.7279 20.9109 18.9645 20.3466 18.9696 19.7567C18.9748 19.1667 18.748 18.5984 18.3381 18.174Z" stroke="#1F41BB" stroke-width="2.3" stroke-linecap="round" stroke-linejoin="round"/>
</svg>
