<svg width="42" height="42" viewBox="0 0 42 42" fill="none" xmlns="http://www.w3.org/2000/svg">
<rect width="42" height="42" rx="21" fill="#1F41BB"/>
<path d="M18.9996 23L29.9996 12M18.9996 23L22.4996 30C22.5435 30.0957 22.6139 30.1769 22.7025 30.2338C22.7912 30.2906 22.8943 30.3209 22.9996 30.3209C23.1049 30.3209 23.208 30.2906 23.2966 30.2338C23.3853 30.1769 23.4557 30.0957 23.4996 30L29.9996 12M18.9996 23L11.9996 19.5C11.9038 19.4561 11.8227 19.3857 11.7658 19.2971C11.7089 19.2084 11.6787 19.1053 11.6787 19C11.6787 18.8947 11.7089 18.7916 11.7658 18.7029C11.8227 18.6143 11.9038 18.5439 11.9996 18.5L29.9996 12" stroke="#FEFEFE" stroke-width="2" stroke-linecap="round" stroke-linejoin="round"/>
</svg>
