<svg width="40" height="40" viewBox="0 0 40 40" fill="none" xmlns="http://www.w3.org/2000/svg">
<rect width="40" height="40" rx="6" fill="#5F5F5F" fill-opacity="0.85"/>
<path fill-rule="evenodd" clip-rule="evenodd" d="M13.3858 11.042H16.5116C16.6388 11.042 16.7629 11.0808 16.8674 11.1531C16.9719 11.2255 17.0519 11.328 17.0966 11.447L18.31 14.672C18.35 14.7786 18.36 14.8942 18.3391 15.0062L17.7308 18.2662C18.4783 20.0228 19.7125 21.2037 21.7583 22.2628L24.9791 21.6378C25.0936 21.6158 25.2119 21.6262 25.3208 21.6678L28.5558 22.9012C28.6741 22.9462 28.7759 23.0261 28.8477 23.1303C28.9196 23.2344 28.9581 23.3579 28.9583 23.4845V26.4712C28.9583 27.8262 27.765 28.9253 26.3683 28.6212C23.8241 28.0678 19.11 26.6603 15.8083 23.3587C12.645 20.1962 11.585 15.8278 11.2291 13.467C11.025 12.1187 12.1058 11.042 13.3858 11.042Z" fill="white"/>
</svg>
