<svg width="22" height="22" viewBox="0 0 22 22" fill="none" xmlns="http://www.w3.org/2000/svg">
<rect x="0.5" y="0.5" width="21" height="21" rx="10.5" fill="#1F41BB"/>
<rect x="0.5" y="0.5" width="21" height="21" rx="10.5" stroke="#F1F3FF"/>
<path d="M14.4625 6.5685C14.3219 6.42783 14.155 6.31625 13.9712 6.24013C13.7875 6.16402 13.5905 6.12487 13.3916 6.12491C13.1928 6.12496 12.9958 6.1642 12.8121 6.2404C12.6284 6.3166 12.4615 6.42826 12.321 6.569L7.5675 11.329C7.28427 11.6129 7.12514 11.9975 7.125 12.3985V14C7.125 14.207 7.293 14.375 7.5 14.375H9.1115C9.513 14.375 9.898 14.215 10.1815 13.9315L14.9315 9.1785C15.2148 8.89449 15.374 8.50968 15.374 8.1085C15.374 7.70732 15.2148 7.32251 14.9315 7.0385L14.4625 6.5685ZM7 15.125C6.90054 15.125 6.80516 15.1645 6.73483 15.2348C6.66451 15.3052 6.625 15.4005 6.625 15.5C6.625 15.5995 6.66451 15.6948 6.73483 15.7652C6.80516 15.8355 6.90054 15.875 7 15.875H15C15.0995 15.875 15.1948 15.8355 15.2652 15.7652C15.3355 15.6948 15.375 15.5995 15.375 15.5C15.375 15.4005 15.3355 15.3052 15.2652 15.2348C15.1948 15.1645 15.0995 15.125 15 15.125H7Z" fill="#FEFEFE"/>
</svg>
