<svg width="14" height="14" viewBox="0 0 14 14" fill="none" xmlns="http://www.w3.org/2000/svg">
<path d="M13.745 4.12002L11.12 6.74502C10.7782 7.08682 10.2231 7.08682 9.88135 6.74502C9.53955 6.40322 9.53955 5.84815 9.88135 5.50635L11.0134 4.37705H0.877051C0.393066 4.37705 0.00205078 3.98604 0.00205078 3.50205C0.00205078 3.01807 0.393066 2.62705 0.877051 2.62705H11.0134L9.88135 1.49502C9.53955 1.15322 9.53955 0.598145 9.88135 0.256348C10.2231 -0.0854492 10.7782 -0.0854492 11.12 0.256348L13.745 2.88135C14.0868 3.22314 14.0868 3.77822 13.745 4.12002ZM2.88135 13.745L0.256348 11.12C-0.0854492 10.7782 -0.0854492 10.2231 0.256348 9.88135L2.88135 7.25635C3.22314 6.91455 3.77822 6.91455 4.12002 7.25635C4.46182 7.59815 4.46182 8.15322 4.12002 8.49502L2.99072 9.62705H13.1271C13.611 9.62705 14.0021 10.0181 14.0021 10.5021C14.0021 10.986 13.611 11.3771 13.1271 11.3771H2.99072L4.12275 12.5091C4.46455 12.8509 4.46455 13.406 4.12275 13.7478C3.78096 14.0896 3.22588 14.0896 2.88408 13.7478L2.88135 13.745Z" fill="#737373"/>
</svg>
