<svg width="28" height="28" viewBox="0 0 28 28" fill="none" xmlns="http://www.w3.org/2000/svg">
<path d="M14.0232 3.395C10.1615 3.395 7.02319 6.53333 7.02319 10.395V13.7667C7.02319 14.4783 6.71986 15.5633 6.35819 16.17L5.01653 18.3983C4.18819 19.775 4.75986 21.3033 6.27653 21.8167C11.3049 23.4967 16.7299 23.4967 21.7582 21.8167C23.1699 21.35 23.7882 19.6817 23.0182 18.3983L21.6765 16.17C21.3265 15.5633 21.0232 14.4783 21.0232 13.7667V10.395C21.0232 6.545 17.8732 3.395 14.0232 3.395Z" stroke="#060527" stroke-width="2" stroke-miterlimit="10" stroke-linecap="round"/>
<path d="M16.1819 3.73333C15.8202 3.62833 15.4469 3.54667 15.0619 3.5C13.9419 3.36 12.8686 3.44167 11.8652 3.73333C12.2036 2.87 13.0436 2.26333 14.0236 2.26333C15.0036 2.26333 15.8436 2.87 16.1819 3.73333Z" stroke="#060527" stroke-width="2" stroke-miterlimit="10" stroke-linecap="round" stroke-linejoin="round"/>
<path d="M17.5234 22.2367C17.5234 24.1617 15.9484 25.7367 14.0234 25.7367C13.0668 25.7367 12.1801 25.34 11.5501 24.71C10.9201 24.08 10.5234 23.1933 10.5234 22.2367" stroke="#060527" stroke-width="2" stroke-miterlimit="10"/>
</svg>
