<svg width="30" height="30" viewBox="0 0 30 30" fill="none" xmlns="http://www.w3.org/2000/svg">
<path d="M15 17.5C15.663 17.5 16.2989 17.2366 16.7678 16.7678C17.2366 16.2989 17.5 15.663 17.5 15C17.5 14.337 17.2366 13.7011 16.7678 13.2322C16.2989 12.7634 15.663 12.5 15 12.5C14.337 12.5 13.7011 12.7634 13.2322 13.2322C12.7634 13.7011 12.5 14.337 12.5 15C12.5 15.663 12.7634 16.2989 13.2322 16.7678C13.7011 17.2366 14.337 17.5 15 17.5ZM7.5 17.5C8.16304 17.5 8.79893 17.2366 9.26777 16.7678C9.73661 16.2989 10 15.663 10 15C10 14.337 9.73661 13.7011 9.26777 13.2322C8.79893 12.7634 8.16304 12.5 7.5 12.5C6.83696 12.5 6.20107 12.7634 5.73223 13.2322C5.26339 13.7011 5 14.337 5 15C5 15.663 5.26339 16.2989 5.73223 16.7678C6.20107 17.2366 6.83696 17.5 7.5 17.5ZM22.5 17.5C23.163 17.5 23.7989 17.2366 24.2678 16.7678C24.7366 16.2989 25 15.663 25 15C25 14.337 24.7366 13.7011 24.2678 13.2322C23.7989 12.7634 23.163 12.5 22.5 12.5C21.837 12.5 21.2011 12.7634 20.7322 13.2322C20.2634 13.7011 20 14.337 20 15C20 15.663 20.2634 16.2989 20.7322 16.7678C21.2011 17.2366 21.837 17.5 22.5 17.5Z" fill="#FEFEFE"/>
</svg>
