<svg width="19" height="19" viewBox="0 0 19 19" fill="none" xmlns="http://www.w3.org/2000/svg">
<path fill-rule="evenodd" clip-rule="evenodd" d="M9.5 18.5C10.6819 18.5 11.8522 18.2672 12.9442 17.8149C14.0361 17.3626 15.0282 16.6997 15.864 15.864C16.6997 15.0282 17.3626 14.0361 17.8149 12.9442C18.2672 11.8522 18.5 10.6819 18.5 9.5C18.5 8.3181 18.2672 7.14778 17.8149 6.05585C17.3626 4.96392 16.6997 3.97177 15.864 3.13604C15.0282 2.30031 14.0361 1.63738 12.9442 1.18508C11.8522 0.732792 10.6819 0.5 9.5 0.5C7.11305 0.5 4.82387 1.44821 3.13604 3.13604C1.44821 4.82387 0.5 7.11305 0.5 9.5C0.5 11.8869 1.44821 14.1761 3.13604 15.864C4.82387 17.5518 7.11305 18.5 9.5 18.5ZM8.283 5.49L13.927 8.626C14.0828 8.71263 14.2126 8.83934 14.303 8.99301C14.3934 9.14668 14.4411 9.32172 14.4411 9.5C14.4411 9.67828 14.3934 9.85332 14.303 10.007C14.2126 10.1607 14.0828 10.2874 13.927 10.374L8.283 13.51C8.10025 13.6116 7.89413 13.6636 7.68506 13.661C7.47599 13.6584 7.27123 13.6013 7.09107 13.4952C6.9109 13.3891 6.76159 13.2377 6.65791 13.0562C6.55424 12.8746 6.4998 12.6691 6.5 12.46V6.54C6.4998 6.33092 6.55424 6.12541 6.65791 5.94384C6.76159 5.76227 6.9109 5.61094 7.09107 5.50484C7.27123 5.39874 7.47599 5.34156 7.68506 5.33895C7.89413 5.33635 8.10025 5.38842 8.283 5.49Z" fill="#1F41BB"/>
</svg>
