<svg width="191" height="28" viewBox="0 0 191 28" fill="none" xmlns="http://www.w3.org/2000/svg">
<path d="M9.00367 9.13617L9.01654 11.2262L15.2552 6.63712L8.96334 2.58508L8.97479 4.44469C6.45041 4.69265 4.11729 5.92056 2.46143 7.87264C0.805566 9.82472 -0.0453698 12.3505 0.0858664 14.9238C0.217101 17.4971 1.32039 19.9196 3.16592 21.6866C5.01145 23.4536 7.45693 24.4289 9.99296 24.4094C12.2489 24.3946 15.3594 23.5677 17.138 21.6336C19.3599 18.9933 21.987 12.364 21.987 12.364L14.03 17.682C13.4949 18.3016 12.8232 18.784 12.0698 19.0898C11.3163 19.3955 10.5025 19.516 9.69456 19.4413C8.88665 19.3667 8.1076 19.0991 7.42094 18.6603C6.73428 18.2215 6.15947 17.6239 5.7434 16.9164C5.32733 16.2089 5.08179 15.4114 5.0268 14.5891C4.97182 13.7667 5.10895 12.9427 5.42701 12.1844C5.74507 11.4261 6.23504 10.7548 6.85697 10.2254C7.47889 9.69602 8.21515 9.32347 9.00567 9.13817" fill="url(#paint0_linear_202_119)"/>
<path d="M26.9324 18.8839L26.9467 16.7939L20.649 21.2962L26.8878 25.4349L26.9005 23.5753C29.4279 23.3623 31.7767 22.1667 33.4578 20.2378C35.1388 18.3088 36.0225 15.7951 35.9246 13.2202C35.8268 10.6453 34.755 8.20785 32.9326 6.41549C31.1101 4.62312 28.6775 3.61407 26.1414 3.59851C23.8854 3.58211 20.7645 4.36596 18.9609 6.27518C16.7049 8.88456 13.992 15.4768 13.992 15.4768L22.0174 10.2694C22.5605 9.65723 23.2384 9.18419 23.9957 8.88889C24.7531 8.59359 25.5684 8.48439 26.3753 8.5702C27.1822 8.656 27.9577 8.93439 28.6386 9.38264C29.3195 9.83089 29.8865 10.4363 30.2934 11.1495C30.7003 11.8627 30.9354 12.6635 30.9797 13.4865C31.0241 14.3096 30.8762 15.1316 30.5484 15.8854C30.2205 16.6393 29.7219 17.3037 29.0931 17.8244C28.4644 18.3452 27.7233 18.7075 26.9305 18.8818" fill="url(#paint1_linear_202_119)"/>
<path d="M53.3414 16.2109H49.0992V13.0352H53.3414C53.9195 13.0352 54.3883 12.9375 54.7477 12.7422C55.107 12.5469 55.3688 12.2773 55.5328 11.9336C55.7047 11.582 55.7906 11.1875 55.7906 10.75C55.7906 10.2812 55.7047 9.84766 55.5328 9.44922C55.3688 9.05078 55.107 8.73047 54.7477 8.48828C54.3883 8.23828 53.9195 8.11328 53.3414 8.11328H50.6461V22H46.5328V4.9375H53.3414C54.7086 4.9375 55.8844 5.1875 56.8688 5.6875C57.8609 6.1875 58.6227 6.875 59.1539 7.75C59.6852 8.61719 59.9508 9.60938 59.9508 10.7266C59.9508 11.8281 59.6852 12.7891 59.1539 13.6094C58.6227 14.4297 57.8609 15.0703 56.8688 15.5312C55.8844 15.9844 54.7086 16.2109 53.3414 16.2109ZM66.6825 12.4609V22H62.7333V9.32031H66.4247L66.6825 12.4609ZM70.4325 9.22656L70.3622 12.8945C70.2059 12.8789 69.995 12.8594 69.7294 12.8359C69.4638 12.8125 69.2411 12.8008 69.0614 12.8008C68.6005 12.8008 68.202 12.8555 67.8661 12.9648C67.538 13.0664 67.2645 13.2227 67.0458 13.4336C66.8348 13.6367 66.6786 13.8945 66.577 14.207C66.4833 14.5195 66.4403 14.8828 66.4481 15.2969L65.7333 14.8281C65.7333 13.9766 65.8153 13.2031 65.9794 12.5078C66.1513 11.8047 66.3934 11.1992 66.7059 10.6914C67.0184 10.1758 67.3973 9.78125 67.8427 9.50781C68.288 9.22656 68.788 9.08594 69.3427 9.08594C69.538 9.08594 69.7294 9.09766 69.9169 9.12109C70.1122 9.14453 70.2841 9.17969 70.4325 9.22656ZM71.5978 15.7891V15.543C71.5978 14.6133 71.7306 13.7578 71.9963 12.9766C72.2619 12.1875 72.6525 11.5039 73.1681 10.9258C73.6838 10.3477 74.3205 9.89844 75.0783 9.57812C75.8361 9.25 76.7111 9.08594 77.7033 9.08594C78.7033 9.08594 79.5822 9.25 80.34 9.57812C81.1056 9.89844 81.7463 10.3477 82.2619 10.9258C82.7775 11.5039 83.1681 12.1875 83.4338 12.9766C83.6994 13.7578 83.8322 14.6133 83.8322 15.543V15.7891C83.8322 16.7109 83.6994 17.5664 83.4338 18.3555C83.1681 19.1367 82.7775 19.8203 82.2619 20.4062C81.7463 20.9844 81.1095 21.4336 80.3517 21.7539C79.5939 22.0742 78.7189 22.2344 77.7267 22.2344C76.7345 22.2344 75.8556 22.0742 75.09 21.7539C74.3244 21.4336 73.6838 20.9844 73.1681 20.4062C72.6525 19.8203 72.2619 19.1367 71.9963 18.3555C71.7306 17.5664 71.5978 16.7109 71.5978 15.7891ZM75.547 15.543V15.7891C75.547 16.2656 75.5822 16.7109 75.6525 17.125C75.7228 17.5391 75.84 17.9023 76.0041 18.2148C76.1681 18.5195 76.3908 18.7578 76.672 18.9297C76.9533 19.1016 77.3048 19.1875 77.7267 19.1875C78.1408 19.1875 78.4845 19.1016 78.758 18.9297C79.0392 18.7578 79.2619 18.5195 79.4259 18.2148C79.59 17.9023 79.7072 17.5391 79.7775 17.125C79.8478 16.7109 79.883 16.2656 79.883 15.7891V15.543C79.883 15.082 79.8478 14.6484 79.7775 14.2422C79.7072 13.8281 79.59 13.4648 79.4259 13.1523C79.2619 12.832 79.0392 12.582 78.758 12.4023C78.4767 12.2227 78.1252 12.1328 77.7033 12.1328C77.2892 12.1328 76.9416 12.2227 76.6603 12.4023C76.3869 12.582 76.1681 12.832 76.0041 13.1523C75.84 13.4648 75.7228 13.8281 75.6525 14.2422C75.5822 14.6484 75.547 15.082 75.547 15.543Z" fill="#262626"/>
<path d="M90.0717 4.9375L92.8608 10.6094L95.6498 4.9375H100.337L95.5795 13.3984L100.466 22H95.7319L92.8608 16.2227L89.9897 22H85.2436L90.142 13.3984L85.3725 4.9375H90.0717ZM107.409 19.1875C107.776 19.1875 108.089 19.1211 108.346 18.9883C108.612 18.8477 108.811 18.6523 108.944 18.4023C109.085 18.1445 109.151 17.8359 109.143 17.4766H112.858C112.866 18.4297 112.632 19.2656 112.155 19.9844C111.686 20.6953 111.046 21.25 110.233 21.6484C109.428 22.0391 108.518 22.2344 107.503 22.2344C106.51 22.2344 105.643 22.0742 104.901 21.7539C104.159 21.4258 103.538 20.9727 103.038 20.3945C102.546 19.8086 102.175 19.125 101.925 18.3438C101.682 17.5625 101.561 16.7148 101.561 15.8008V15.5312C101.561 14.6172 101.682 13.7695 101.925 12.9883C102.175 12.1992 102.546 11.5156 103.038 10.9375C103.538 10.3516 104.155 9.89844 104.889 9.57812C105.632 9.25 106.495 9.08594 107.479 9.08594C108.534 9.08594 109.464 9.28516 110.268 9.68359C111.081 10.082 111.718 10.6602 112.178 11.418C112.639 12.1758 112.866 13.0938 112.858 14.1719H109.143C109.151 13.7891 109.093 13.4453 108.968 13.1406C108.843 12.8359 108.647 12.5938 108.382 12.4141C108.124 12.2266 107.792 12.1328 107.385 12.1328C106.979 12.1328 106.651 12.2227 106.401 12.4023C106.151 12.582 105.96 12.832 105.827 13.1523C105.702 13.4648 105.616 13.8242 105.569 14.2305C105.53 14.6367 105.51 15.0703 105.51 15.5312V15.8008C105.51 16.2695 105.53 16.7109 105.569 17.125C105.616 17.5312 105.706 17.8906 105.839 18.2031C105.971 18.5078 106.163 18.75 106.413 18.9297C106.663 19.1016 106.995 19.1875 107.409 19.1875ZM119.133 4V22H115.184V4H119.133ZM118.664 15.2266L117.738 15.25C117.738 14.3594 117.848 13.5391 118.066 12.7891C118.285 12.0391 118.598 11.3867 119.004 10.832C119.41 10.2773 119.898 9.84766 120.469 9.54297C121.039 9.23828 121.672 9.08594 122.367 9.08594C122.992 9.08594 123.562 9.17578 124.078 9.35547C124.602 9.53516 125.051 9.82422 125.426 10.2227C125.809 10.6211 126.102 11.1406 126.305 11.7812C126.516 12.4219 126.621 13.2031 126.621 14.125V22H122.648V14.1016C122.648 13.5859 122.574 13.1875 122.426 12.9062C122.285 12.6172 122.082 12.418 121.816 12.3086C121.551 12.1914 121.227 12.1328 120.844 12.1328C120.383 12.1328 120.008 12.2109 119.719 12.3672C119.43 12.5234 119.207 12.7422 119.051 13.0234C118.902 13.2969 118.801 13.6211 118.746 13.9961C118.691 14.3711 118.664 14.7812 118.664 15.2266ZM136.118 18.8125V13.5859C136.118 13.2266 136.068 12.918 135.966 12.6602C135.865 12.4023 135.704 12.2031 135.486 12.0625C135.267 11.9141 134.974 11.8398 134.607 11.8398C134.31 11.8398 134.056 11.8906 133.845 11.9922C133.634 12.0938 133.474 12.2461 133.365 12.4492C133.255 12.6523 133.2 12.9102 133.2 13.2227H129.251C129.251 12.6367 129.38 12.0938 129.638 11.5938C129.904 11.0859 130.279 10.6445 130.763 10.2695C131.255 9.89453 131.841 9.60547 132.521 9.40234C133.208 9.19141 133.974 9.08594 134.818 9.08594C135.825 9.08594 136.724 9.25391 137.513 9.58984C138.31 9.92578 138.939 10.4297 139.4 11.1016C139.861 11.7656 140.091 12.6016 140.091 13.6094V18.8008C140.091 19.6289 140.138 20.2578 140.232 20.6875C140.325 21.1094 140.458 21.4805 140.63 21.8008V22H136.669C136.482 21.6094 136.341 21.1328 136.247 20.5703C136.161 20 136.118 19.4141 136.118 18.8125ZM136.599 14.2539L136.622 16.3633H134.876C134.509 16.3633 134.197 16.4141 133.939 16.5156C133.689 16.6172 133.486 16.7578 133.329 16.9375C133.181 17.1094 133.072 17.3047 133.001 17.5234C132.939 17.7422 132.908 17.9727 132.908 18.2148C132.908 18.4492 132.962 18.6602 133.072 18.8477C133.189 19.0273 133.345 19.168 133.54 19.2695C133.736 19.3711 133.954 19.4219 134.197 19.4219C134.634 19.4219 135.005 19.3398 135.31 19.1758C135.622 19.0039 135.861 18.7969 136.025 18.5547C136.189 18.3125 136.271 18.0859 136.271 17.875L137.138 19.4922C136.982 19.8047 136.802 20.1211 136.599 20.4414C136.404 20.7617 136.158 21.0586 135.861 21.332C135.572 21.5977 135.216 21.8164 134.794 21.9883C134.372 22.1523 133.861 22.2344 133.259 22.2344C132.478 22.2344 131.759 22.0742 131.103 21.7539C130.454 21.4336 129.935 20.9883 129.544 20.418C129.154 19.8398 128.958 19.1758 128.958 18.4258C128.958 17.7695 129.075 17.1836 129.31 16.668C129.552 16.1523 129.915 15.7148 130.4 15.3555C130.884 14.9961 131.501 14.7227 132.251 14.5352C133.001 14.3477 133.884 14.2539 134.9 14.2539H136.599ZM146.881 12.0273V22H142.932V9.32031H146.635L146.881 12.0273ZM146.413 15.2266L145.487 15.25C145.487 14.2812 145.604 13.418 145.838 12.6602C146.073 11.8945 146.405 11.2461 146.835 10.7148C147.264 10.1836 147.776 9.78125 148.37 9.50781C148.971 9.22656 149.639 9.08594 150.374 9.08594C150.96 9.08594 151.495 9.17188 151.979 9.34375C152.471 9.51562 152.893 9.79297 153.245 10.1758C153.604 10.5586 153.878 11.0664 154.065 11.6992C154.26 12.3242 154.358 13.0977 154.358 14.0195V22H150.385V14.0078C150.385 13.5 150.315 13.1133 150.174 12.8477C150.034 12.5742 149.831 12.3867 149.565 12.2852C149.299 12.1836 148.975 12.1328 148.592 12.1328C148.186 12.1328 147.842 12.2109 147.561 12.3672C147.28 12.5234 147.053 12.7422 146.881 13.0234C146.717 13.2969 146.596 13.6211 146.518 13.9961C146.448 14.3711 146.413 14.7812 146.413 15.2266ZM165.238 9.32031H168.824V21.5078C168.824 22.6797 168.555 23.6719 168.015 24.4844C167.476 25.3047 166.723 25.9258 165.754 26.3477C164.793 26.7773 163.668 26.9922 162.379 26.9922C161.808 26.9922 161.226 26.918 160.633 26.7695C160.039 26.6289 159.484 26.418 158.969 26.1367C158.453 25.8555 158.019 25.5078 157.668 25.0938L159.32 22.7734C159.64 23.1328 160.043 23.4375 160.527 23.6875C161.012 23.9453 161.582 24.0742 162.238 24.0742C162.808 24.0742 163.285 23.9727 163.668 23.7695C164.058 23.5664 164.355 23.2695 164.558 22.8789C164.762 22.4961 164.863 22.0312 164.863 21.4844V12.3203L165.238 9.32031ZM156.812 15.8125V15.5664C156.812 14.6055 156.93 13.7305 157.164 12.9414C157.406 12.1445 157.75 11.4609 158.195 10.8906C158.648 10.3125 159.195 9.86719 159.836 9.55469C160.476 9.24219 161.199 9.08594 162.004 9.08594C162.871 9.08594 163.582 9.25391 164.137 9.58984C164.699 9.91797 165.148 10.3789 165.484 10.9727C165.828 11.5664 166.094 12.2617 166.281 13.0586C166.476 13.8477 166.64 14.6992 166.773 15.6133V15.9062C166.64 16.7656 166.457 17.5781 166.223 18.3438C165.996 19.1016 165.699 19.7734 165.332 20.3594C164.965 20.9453 164.504 21.4062 163.949 21.7422C163.402 22.0703 162.746 22.2344 161.98 22.2344C161.183 22.2344 160.465 22.0742 159.824 21.7539C159.191 21.4336 158.648 20.9844 158.195 20.4062C157.75 19.8281 157.406 19.1484 157.164 18.3672C156.93 17.5859 156.812 16.7344 156.812 15.8125ZM160.762 15.5664V15.8125C160.762 16.2891 160.805 16.7305 160.89 17.1367C160.984 17.543 161.125 17.9023 161.312 18.2148C161.5 18.5195 161.73 18.7578 162.004 18.9297C162.285 19.1016 162.613 19.1875 162.988 19.1875C163.558 19.1875 164.019 19.0664 164.371 18.8242C164.723 18.582 164.976 18.2383 165.133 17.793C165.289 17.3477 165.355 16.8242 165.332 16.2227V15.2969C165.348 14.7812 165.312 14.3281 165.226 13.9375C165.14 13.5391 165.004 13.207 164.816 12.9414C164.637 12.6758 164.394 12.4766 164.09 12.3438C163.793 12.2031 163.433 12.1328 163.012 12.1328C162.644 12.1328 162.32 12.2188 162.039 12.3906C161.758 12.5625 161.523 12.8047 161.336 13.1172C161.148 13.4219 161.004 13.7852 160.902 14.207C160.808 14.6211 160.762 15.0742 160.762 15.5664ZM177.958 22.2344C176.927 22.2344 176.005 22.0742 175.193 21.7539C174.38 21.4258 173.693 20.9766 173.13 20.4062C172.575 19.8359 172.15 19.1797 171.853 18.4375C171.564 17.6953 171.419 16.9102 171.419 16.082V15.6367C171.419 14.707 171.548 13.8477 171.806 13.0586C172.064 12.2617 172.446 11.5664 172.954 10.9727C173.462 10.3789 174.099 9.91797 174.864 9.58984C175.63 9.25391 176.521 9.08594 177.536 9.08594C178.435 9.08594 179.239 9.23047 179.95 9.51953C180.661 9.80859 181.263 10.2227 181.755 10.7617C182.255 11.3008 182.634 11.9531 182.892 12.7188C183.157 13.4844 183.29 14.3438 183.29 15.2969V16.9023H172.931V14.4297H179.435V14.125C179.443 13.7031 179.368 13.3438 179.212 13.0469C179.064 12.75 178.845 12.5234 178.556 12.3672C178.267 12.2109 177.915 12.1328 177.501 12.1328C177.071 12.1328 176.716 12.2266 176.435 12.4141C176.161 12.6016 175.946 12.8594 175.79 13.1875C175.642 13.5078 175.536 13.8789 175.474 14.3008C175.411 14.7227 175.38 15.168 175.38 15.6367V16.082C175.38 16.5508 175.443 16.9766 175.568 17.3594C175.7 17.7422 175.888 18.0703 176.13 18.3438C176.38 18.6094 176.677 18.8164 177.021 18.9648C177.372 19.1133 177.771 19.1875 178.216 19.1875C178.755 19.1875 179.286 19.0859 179.81 18.8828C180.333 18.6797 180.782 18.3438 181.157 17.875L182.95 20.0078C182.693 20.375 182.325 20.7305 181.849 21.0742C181.38 21.418 180.818 21.6992 180.161 21.918C179.505 22.1289 178.771 22.2344 177.958 22.2344ZM185.873 20.1484C185.873 19.5859 186.077 19.1172 186.483 18.7422C186.889 18.3594 187.413 18.168 188.053 18.168C188.702 18.168 189.225 18.3594 189.623 18.7422C190.03 19.1172 190.233 19.5859 190.233 20.1484C190.233 20.7109 190.03 21.1836 189.623 21.5664C189.225 21.9414 188.702 22.1289 188.053 22.1289C187.413 22.1289 186.889 21.9414 186.483 21.5664C186.077 21.1836 185.873 20.7109 185.873 20.1484Z" fill="#1F41BB"/>
<defs>
<linearGradient id="paint0_linear_202_119" x1="2.28942" y1="6.2674" x2="15.205" y2="24.1821" gradientUnits="userSpaceOnUse">
<stop stop-color="#1F41BB"/>
<stop offset="0.13" stop-color="#1F41BB"/>
<stop offset="0.258" stop-color="#2950D9"/>
<stop offset="0.376" stop-color="#496AE2"/>
<stop offset="0.492" stop-color="#4F73F5" stop-opacity="0.94"/>
<stop offset="0.612" stop-color="#4F73F5" stop-opacity="0.9"/>
<stop offset="0.731" stop-color="#4F73F5" stop-opacity="0.85"/>
<stop offset="0.829" stop-color="#7794FF"/>
<stop offset="1" stop-color="#7895FF" stop-opacity="0.87"/>
</linearGradient>
<linearGradient id="paint1_linear_202_119" x1="33.609" y1="21.8452" x2="20.9323" y2="3.7499" gradientUnits="userSpaceOnUse">
<stop stop-color="#1F41BB"/>
<stop offset="0.13" stop-color="#1F41BB"/>
<stop offset="0.258" stop-color="#2950D9"/>
<stop offset="0.376" stop-color="#496AE2"/>
<stop offset="0.492" stop-color="#4F73F5" stop-opacity="0.94"/>
<stop offset="0.612" stop-color="#4F73F5" stop-opacity="0.9"/>
<stop offset="0.731" stop-color="#4F73F5" stop-opacity="0.85"/>
<stop offset="0.829" stop-color="#7794FF"/>
<stop offset="1" stop-color="#7895FF" stop-opacity="0.87"/>
</linearGradient>
</defs>
</svg>
