<svg width="12" height="12" viewBox="0 0 12 12" fill="none" xmlns="http://www.w3.org/2000/svg">
<path d="M7.1375 8.625C7.22917 8.54167 7.27917 8.4375 7.2875 8.3125C7.29583 8.1875 7.25417 8.07917 7.1625 7.9875L5.775 6.525L5.7875 6.4875H5.9125C6.3625 6.4875 6.7355 6.35 7.0315 6.075C7.3275 5.8 7.50867 5.47917 7.575 5.1125H7.7875C7.87083 5.1125 7.93967 5.08333 7.994 5.025C8.04833 4.96667 8.07533 4.89583 8.075 4.8125C8.07467 4.72917 8.04767 4.66033 7.994 4.606C7.94033 4.55167 7.8715 4.52467 7.7875 4.525H7.5625C7.5375 4.4 7.49383 4.28133 7.4315 4.169C7.36917 4.05667 7.292 3.94617 7.2 3.8375H7.7875C7.87083 3.8375 7.93967 3.80833 7.994 3.75C8.04833 3.69167 8.07533 3.62083 8.075 3.5375C8.07467 3.45417 8.04767 3.3855 7.994 3.3315C7.94033 3.2775 7.8715 3.25033 7.7875 3.25H4.2875C4.1875 3.25 4.10217 3.2855 4.0315 3.3565C3.96083 3.4275 3.92533 3.51283 3.925 3.6125C3.92467 3.71217 3.96017 3.7955 4.0315 3.8625C4.10283 3.9295 4.18817 3.96283 4.2875 3.9625H5.875C6.09167 3.9625 6.26883 4.01667 6.4065 4.125C6.54417 4.23333 6.63783 4.36667 6.6875 4.525H4.2125C4.12917 4.525 4.06033 4.55417 4.006 4.6125C3.95167 4.67083 3.92467 4.74167 3.925 4.825C3.92533 4.90833 3.9525 4.97717 4.0065 5.0315C4.0605 5.08583 4.12917 5.11283 4.2125 5.1125H6.7C6.65 5.27917 6.55417 5.423 6.4125 5.544C6.27083 5.665 6.07917 5.72533 5.8375 5.725H4.9875C4.87917 5.725 4.7855 5.75 4.7065 5.8C4.6275 5.85 4.567 5.92083 4.525 6.0125C4.483 6.10417 4.4705 6.198 4.4875 6.294C4.5045 6.39 4.55033 6.4795 4.625 6.5625L6.5 8.6125C6.58333 8.70417 6.6875 8.75 6.8125 8.75C6.9375 8.75 7.04583 8.70833 7.1375 8.625ZM6 11C5.30833 11 4.65833 10.8687 4.05 10.606C3.44167 10.3433 2.9125 9.98717 2.4625 9.5375C2.0125 9.08783 1.65633 8.55867 1.394 7.95C1.13167 7.34133 1.00033 6.69133 1 6C0.999667 5.30867 1.131 4.65867 1.394 4.05C1.657 3.44133 2.01317 2.91217 2.4625 2.4625C2.91183 2.01283 3.441 1.65667 4.05 1.394C4.659 1.13133 5.309 1 6 1C6.691 1 7.341 1.13133 7.95 1.394C8.559 1.65667 9.08817 2.01283 9.5375 2.4625C9.98683 2.91217 10.3432 3.44133 10.6065 4.05C10.8698 4.65867 11.001 5.30867 11 6C10.999 6.69133 10.8677 7.34133 10.606 7.95C10.3443 8.55867 9.98817 9.08783 9.5375 9.5375C9.08683 9.98717 8.55767 10.3435 7.95 10.6065C7.34233 10.8695 6.69233 11.0007 6 11ZM6 10C7.11667 10 8.0625 9.6125 8.8375 8.8375C9.6125 8.0625 10 7.11667 10 6C10 4.88333 9.6125 3.9375 8.8375 3.1625C8.0625 2.3875 7.11667 2 6 2C4.88333 2 3.9375 2.3875 3.1625 3.1625C2.3875 3.9375 2 4.88333 2 6C2 7.11667 2.3875 8.0625 3.1625 8.8375C3.9375 9.6125 4.88333 10 6 10Z" fill="#737373"/>
</svg>
