<svg width="25" height="25" viewBox="0 0 25 25" fill="none" xmlns="http://www.w3.org/2000/svg">
<path d="M14.5137 0.150002C14.699 0.150007 14.8794 0.208808 15.0291 0.317936C15.1788 0.427064 15.29 0.580887 15.3467 0.757252L16.3092 3.748C16.7135 3.94575 17.1002 4.168 17.4695 4.41825L20.5425 3.75675C20.7236 3.71807 20.9124 3.73789 21.0816 3.81337C21.2508 3.88885 21.3917 4.01609 21.484 4.17675L23.9095 8.375C24.0021 8.53557 24.0413 8.72141 24.0215 8.90572C24.0017 9.09003 23.9238 9.26328 23.7992 9.4005L21.6905 11.728C21.7212 12.1743 21.7212 12.6222 21.6905 13.0685L23.7992 15.3995C23.9238 15.5367 24.0017 15.71 24.0215 15.8943C24.0413 16.0786 24.0021 16.2644 23.9095 16.425L21.484 20.625C21.3914 20.7853 21.2505 20.9122 21.0813 20.9874C20.9121 21.0625 20.7235 21.0821 20.5425 21.0433L17.4695 20.3818C17.102 20.6303 16.7135 20.8543 16.311 21.052L15.3467 24.0428C15.29 24.2191 15.1788 24.3729 15.0291 24.4821C14.8794 24.5912 14.699 24.65 14.5137 24.65H9.6627C9.47745 24.65 9.29698 24.5912 9.14728 24.4821C8.99759 24.3729 8.88639 24.2191 8.8297 24.0428L7.86895 21.0538C7.4658 20.8566 7.07694 20.6314 6.7052 20.38L3.63395 21.0433C3.45277 21.0819 3.26398 21.0621 3.09478 20.9866C2.92558 20.9112 2.78471 20.7839 2.69245 20.6233L0.266952 16.425C0.174333 16.2644 0.135102 16.0786 0.154917 15.8943C0.174731 15.71 0.252568 15.5367 0.377202 15.3995L2.48595 13.0685C2.4554 12.6234 2.4554 12.1766 2.48595 11.7315L0.377202 9.4005C0.252568 9.26328 0.174731 9.09003 0.154917 8.90572C0.135102 8.72141 0.174333 8.53557 0.266952 8.375L2.69245 4.175C2.78496 4.01466 2.92595 3.88778 3.09512 3.81263C3.2643 3.73747 3.45295 3.71791 3.63395 3.75675L6.7052 4.42C7.0762 4.16975 7.4647 3.944 7.86895 3.74625L8.83145 0.757252C8.88796 0.581455 8.99862 0.428039 9.14762 0.318964C9.29662 0.209889 9.4763 0.150746 9.66095 0.150002H14.512H14.5137ZM13.8732 1.9H10.3032L9.3092 4.99225L8.63895 5.3195C8.30945 5.48073 7.99138 5.66433 7.68695 5.869L7.06745 6.289L3.88945 5.603L2.10445 8.697L4.2832 11.1085L4.2307 11.8505C4.20555 12.2164 4.20555 12.5836 4.2307 12.9495L4.2832 13.6915L2.10095 16.103L3.8877 19.197L7.0657 18.5128L7.6852 18.931C7.98963 19.1357 8.3077 19.3193 8.6372 19.4805L9.30745 19.8078L10.3032 22.9H13.8767L14.8742 19.806L15.5427 19.4805C15.8718 19.3197 16.1894 19.136 16.493 18.931L17.1107 18.5128L20.2905 19.197L22.0755 16.103L19.895 13.6915L19.9475 12.9495C19.9727 12.583 19.9727 12.2152 19.9475 11.8488L19.895 11.1068L22.0772 8.697L20.2905 5.603L17.1107 6.2855L16.493 5.869C16.1894 5.66396 15.8718 5.48034 15.5427 5.3195L14.8742 4.994L13.875 1.9H13.8732ZM12.0882 7.15C13.4806 7.15 14.8159 7.70312 15.8005 8.68769C16.7851 9.67226 17.3382 11.0076 17.3382 12.4C17.3382 13.7924 16.7851 15.1277 15.8005 16.1123C14.8159 17.0969 13.4806 17.65 12.0882 17.65C10.6958 17.65 9.36046 17.0969 8.37589 16.1123C7.39133 15.1277 6.8382 13.7924 6.8382 12.4C6.8382 11.0076 7.39133 9.67226 8.37589 8.68769C9.36046 7.70312 10.6958 7.15 12.0882 7.15ZM12.0882 8.9C11.1599 8.9 10.2697 9.26875 9.61333 9.92513C8.95695 10.5815 8.5882 11.4717 8.5882 12.4C8.5882 13.3283 8.95695 14.2185 9.61333 14.8749C10.2697 15.5313 11.1599 15.9 12.0882 15.9C13.0165 15.9 13.9067 15.5313 14.5631 14.8749C15.2195 14.2185 15.5882 13.3283 15.5882 12.4C15.5882 11.4717 15.2195 10.5815 14.5631 9.92513C13.9067 9.26875 13.0165 8.9 12.0882 8.9Z" fill="#262626" stroke="black" stroke-width="0.3"/>
</svg>
