<svg width="12" height="12" viewBox="0 0 12 12" fill="none" xmlns="http://www.w3.org/2000/svg">
<path d="M6.5 5.8V4C6.5 3.85833 6.452 3.73967 6.356 3.644C6.26 3.54833 6.14133 3.50033 6 3.5C5.85867 3.49967 5.74 3.54767 5.644 3.644C5.548 3.74033 5.5 3.859 5.5 4V5.9875C5.5 6.05417 5.5125 6.11883 5.5375 6.1815C5.5625 6.24417 5.6 6.30033 5.65 6.35L7.3 8C7.39167 8.09167 7.50833 8.1375 7.65 8.1375C7.79167 8.1375 7.90833 8.09167 8 8C8.09167 7.90833 8.1375 7.79167 8.1375 7.65C8.1375 7.50833 8.09167 7.39167 8 7.3L6.5 5.8ZM6 11C5.30833 11 4.65833 10.8687 4.05 10.606C3.44167 10.3433 2.9125 9.98717 2.4625 9.5375C2.0125 9.08783 1.65633 8.55867 1.394 7.95C1.13167 7.34133 1.00033 6.69133 1 6C0.999667 5.30867 1.131 4.65867 1.394 4.05C1.657 3.44133 2.01317 2.91217 2.4625 2.4625C2.91183 2.01283 3.441 1.65667 4.05 1.394C4.659 1.13133 5.309 1 6 1C6.691 1 7.341 1.13133 7.95 1.394C8.559 1.65667 9.08817 2.01283 9.5375 2.4625C9.98683 2.91217 10.3432 3.44133 10.6065 4.05C10.8698 4.65867 11.001 5.30867 11 6C10.999 6.69133 10.8677 7.34133 10.606 7.95C10.3443 8.55867 9.98817 9.08783 9.5375 9.5375C9.08683 9.98717 8.55767 10.3435 7.95 10.6065C7.34233 10.8695 6.69233 11.0007 6 11ZM6 10C7.10833 10 8.05217 9.6105 8.8315 8.8315C9.61083 8.0525 10.0003 7.10867 10 6C9.99967 4.89133 9.61017 3.9475 8.8315 3.1685C8.05283 2.3895 7.109 2 6 2C4.891 2 3.94717 2.38967 3.1685 3.169C2.38983 3.94833 2.00033 4.892 2 6C1.99967 7.108 2.38933 8.05183 3.169 8.8315C3.94867 9.61117 4.89233 10.0007 6 10Z" fill="#737373"/>
</svg>
