<svg width="18" height="18" viewBox="0 0 18 18" fill="none" xmlns="http://www.w3.org/2000/svg">
<path d="M12 14.25H15C15.1989 14.25 15.3897 14.171 15.5303 14.0303C15.671 13.8897 15.75 13.6989 15.75 13.5V12.75C15.75 12.1533 15.5129 11.581 15.091 11.159C14.669 10.7371 14.0967 10.5 13.5 10.5H12M10.323 7.5C10.6268 7.83965 11.0265 8.07904 11.4694 8.18652C11.9122 8.294 12.3772 8.26449 12.8029 8.10189C13.2286 7.93929 13.5949 7.65127 13.8533 7.27595C14.1117 6.90062 14.2501 6.45568 14.2501 6C14.2501 5.54432 14.1117 5.09938 13.8533 4.72405C13.5949 4.34873 13.2286 4.06071 12.8029 3.89811C12.3772 3.73552 11.9122 3.706 11.4694 3.81348C11.0265 3.92096 10.6268 4.16036 10.323 4.5M2.25 13.5V12.75C2.25 12.1533 2.48705 11.581 2.90901 11.159C3.33097 10.7371 3.90326 10.5 4.5 10.5H7.5C8.09674 10.5 8.66903 10.7371 9.09099 11.159C9.51295 11.581 9.75 12.1533 9.75 12.75V13.5C9.75 13.6989 9.67098 13.8897 9.53033 14.0303C9.38968 14.171 9.19891 14.25 9 14.25H3C2.80109 14.25 2.61032 14.171 2.46967 14.0303C2.32902 13.8897 2.25 13.6989 2.25 13.5ZM8.25 6C8.25 6.59674 8.01295 7.16903 7.59099 7.59099C7.16903 8.01295 6.59674 8.25 6 8.25C5.40326 8.25 4.83097 8.01295 4.40901 7.59099C3.98705 7.16903 3.75 6.59674 3.75 6C3.75 5.40326 3.98705 4.83097 4.40901 4.40901C4.83097 3.98705 5.40326 3.75 6 3.75C6.59674 3.75 7.16903 3.98705 7.59099 4.40901C8.01295 4.83097 8.25 5.40326 8.25 6Z" stroke="#1F41BB" stroke-width="1.33333" stroke-linecap="round"/>
</svg>
