<svg width="33" height="32" viewBox="0 0 33 32" fill="none" xmlns="http://www.w3.org/2000/svg">
<path d="M10.9165 14.6666C10.9165 14.313 11.057 13.9739 11.307 13.7238C11.5571 13.4738 11.8962 13.3333 12.2498 13.3333H20.2498C20.6035 13.3333 20.9426 13.4738 21.1926 13.7238C21.4427 13.9739 21.5832 14.313 21.5832 14.6666C21.5832 15.0203 21.4427 15.3594 21.1926 15.6094C20.9426 15.8595 20.6035 16 20.2498 16H12.2498C11.8962 16 11.5571 15.8595 11.307 15.6094C11.057 15.3594 10.9165 15.0203 10.9165 14.6666ZM12.2498 18.6666C11.8962 18.6666 11.5571 18.8071 11.307 19.0572C11.057 19.3072 10.9165 19.6463 10.9165 20C10.9165 20.3536 11.057 20.6927 11.307 20.9428C11.5571 21.1928 11.8962 21.3333 12.2498 21.3333H17.5832C17.9368 21.3333 18.2759 21.1928 18.526 20.9428C18.776 20.6927 18.9165 20.3536 18.9165 20C18.9165 19.6463 18.776 19.3072 18.526 19.0572C18.2759 18.8071 17.9368 18.6666 17.5832 18.6666H12.2498ZM2.91651 16C2.91717 13.0768 3.87848 10.2348 5.65248 7.91142C7.42649 5.58806 9.91486 3.91207 12.7346 3.1414C15.5544 2.37073 18.5493 2.54808 21.2584 3.64617C23.9676 4.74426 26.2407 6.70222 27.7281 9.21872C29.2155 11.7352 29.8347 14.6708 29.4903 17.5736C29.146 20.4765 27.8572 23.1857 25.8224 25.2844C23.7875 27.3831 21.1193 28.7549 18.2285 29.1887C15.3377 29.6225 12.3844 29.0943 9.82317 27.6853L4.63917 29.264C4.40795 29.3344 4.16192 29.3407 3.92742 29.2821C3.69292 29.2235 3.47875 29.1022 3.30783 28.9313C3.13691 28.7604 3.01567 28.5462 2.95708 28.3117C2.89848 28.0772 2.90474 27.8312 2.97517 27.6L4.55384 22.408C3.47854 20.4434 2.91544 18.2396 2.91651 16ZM16.2498 5.3333C14.3563 5.33314 12.4969 5.83702 10.8626 6.79318C9.22824 7.74934 7.87787 9.12332 6.95018 10.774C6.02249 12.4247 5.55092 14.2925 5.5839 16.1857C5.61688 18.079 6.15322 19.9293 7.13784 21.5466C7.23558 21.7073 7.29822 21.8868 7.32166 22.0734C7.3451 22.26 7.3288 22.4494 7.27384 22.6293L6.25251 25.9866L9.6045 24.9653C9.78493 24.9103 9.97496 24.8943 10.1621 24.9182C10.3491 24.9421 10.529 25.0054 10.6898 25.104C12.0956 25.9623 13.6811 26.4833 15.322 26.6263C16.9629 26.7694 18.6146 26.5304 20.1477 25.9283C21.6808 25.3261 23.0536 24.3771 24.1586 23.1556C25.2635 21.9341 26.0706 20.4733 26.5165 18.8877C26.9624 17.3021 27.0351 15.6347 26.7288 14.0164C26.4225 12.398 25.7455 10.8725 24.751 9.55953C23.7565 8.24655 22.4714 7.18172 20.9965 6.44849C19.5216 5.71526 17.8969 5.33356 16.2498 5.3333Z" fill="#737373"/>
</svg>
