<svg width="33" height="32" viewBox="0 0 33 32" fill="none" xmlns="http://www.w3.org/2000/svg">
<path d="M8.50016 25.3333H12.5002V18.6666C12.5002 18.2888 12.6282 17.9724 12.8842 17.7173C13.1402 17.4622 13.4566 17.3342 13.8335 17.3333H19.1668C19.5446 17.3333 19.8615 17.4613 20.1175 17.7173C20.3735 17.9733 20.501 18.2897 20.5002 18.6666V25.3333H24.5002V13.3333L16.5002 7.33329L8.50016 13.3333V25.3333ZM5.8335 25.3333V13.3333C5.8335 12.9111 5.92816 12.5111 6.1175 12.1333C6.30683 11.7555 6.56772 11.4444 6.90016 11.2L14.9002 5.19996C15.3668 4.8444 15.9002 4.66663 16.5002 4.66663C17.1002 4.66663 17.6335 4.8444 18.1002 5.19996L26.1002 11.2C26.4335 11.4444 26.6948 11.7555 26.8842 12.1333C27.0735 12.5111 27.1677 12.9111 27.1668 13.3333V25.3333C27.1668 26.0666 26.9055 26.6946 26.3828 27.2173C25.8602 27.74 25.2326 28.0008 24.5002 28H19.1668C18.7891 28 18.4726 27.872 18.2175 27.616C17.9624 27.36 17.8344 27.0435 17.8335 26.6666V20H15.1668V26.6666C15.1668 27.0444 15.0388 27.3613 14.7828 27.6173C14.5268 27.8733 14.2104 28.0008 13.8335 28H8.50016C7.76683 28 7.13927 27.7391 6.6175 27.2173C6.09572 26.6955 5.83438 26.0675 5.8335 25.3333Z" fill="#1F41BB"/>
</svg>
