<svg width="33" height="32" viewBox="0 0 33 32" fill="none" xmlns="http://www.w3.org/2000/svg">
<path d="M5.8335 24.0001C5.8335 22.5856 6.3954 21.229 7.39559 20.2288C8.39579 19.2287 9.75234 18.6667 11.1668 18.6667H21.8335C23.248 18.6667 24.6045 19.2287 25.6047 20.2288C26.6049 21.229 27.1668 22.5856 27.1668 24.0001C27.1668 24.7073 26.8859 25.3856 26.3858 25.8857C25.8857 26.3858 25.2074 26.6667 24.5002 26.6667H8.50016C7.79292 26.6667 7.11464 26.3858 6.61454 25.8857C6.11445 25.3856 5.8335 24.7073 5.8335 24.0001Z" stroke="#737373" stroke-width="2.5" stroke-linejoin="round"/>
<path d="M16.5 13.3334C18.7091 13.3334 20.5 11.5425 20.5 9.33337C20.5 7.12424 18.7091 5.33337 16.5 5.33337C14.2909 5.33337 12.5 7.12424 12.5 9.33337C12.5 11.5425 14.2909 13.3334 16.5 13.3334Z" stroke="#737373" stroke-width="2.5"/>
</svg>
