<svg width="37" height="36" viewBox="0 0 37 36" fill="none" xmlns="http://www.w3.org/2000/svg">
<path d="M25.4165 6C25.4165 6 27.104 9.375 25.4165 13.5M30.6665 3C30.6665 3 34.0415 9.075 30.6665 16.5M14.9165 15C15.6059 15 16.2886 14.8642 16.9256 14.6004C17.5626 14.3365 18.1413 13.9498 18.6288 13.4623C19.1163 12.9748 19.503 12.396 19.7669 11.7591C20.0307 11.1221 20.1665 10.4394 20.1665 9.75C20.1665 9.06056 20.0307 8.37787 19.7669 7.74091C19.503 7.10395 19.1163 6.5252 18.6288 6.03769C18.1413 5.55018 17.5626 5.16347 16.9256 4.89963C16.2886 4.6358 15.6059 4.5 14.9165 4.5C13.5241 4.5 12.1888 5.05312 11.2042 6.03769C10.2196 7.02226 9.6665 8.35761 9.6665 9.75C9.6665 11.1424 10.2196 12.4777 11.2042 13.4623C12.1888 14.4469 13.5241 15 14.9165 15ZM3.6665 30.6V31.5H26.1665V30.6C26.1665 27.24 26.1665 25.56 25.5125 24.276C24.9373 23.1471 24.0194 22.2292 22.8905 21.654C21.6065 21 19.9265 21 16.5665 21H13.2665C9.9065 21 8.2265 21 6.9425 21.654C5.81358 22.2292 4.89574 23.1471 4.3205 24.276C3.6665 25.56 3.6665 27.24 3.6665 30.6Z" stroke="#1F41BB" stroke-width="3" stroke-linecap="round" stroke-linejoin="round"/>
</svg>
