<svg width="37" height="36" viewBox="0 0 37 36" fill="none" xmlns="http://www.w3.org/2000/svg">
<path d="M3.8335 18H33.8335M30.8335 18V30C30.8335 30.7957 30.5174 31.5587 29.9548 32.1213C29.3922 32.6839 28.6291 33 27.8335 33H9.8335C9.03785 33 8.27478 32.6839 7.71218 32.1213C7.14957 31.5587 6.8335 30.7957 6.8335 30V18M6.8335 12L30.8335 6M14.1235 10.17L13.4485 7.455C13.3518 7.07285 13.3313 6.67539 13.3883 6.28533C13.4453 5.89527 13.5786 5.52026 13.7806 5.18175C13.9826 4.84324 14.2493 4.54785 14.5655 4.31248C14.8818 4.07711 15.2413 3.90636 15.6235 3.81L18.5335 3.09C18.9167 2.99353 19.3151 2.9737 19.7059 3.03164C20.0968 3.08959 20.4723 3.22417 20.811 3.42766C21.1497 3.63115 21.4449 3.89954 21.6795 4.21742C21.9142 4.5353 22.0838 4.89641 22.1785 5.28L22.8535 7.98" stroke="#1F41BB" stroke-width="3" stroke-linecap="round" stroke-linejoin="round"/>
</svg>
