<svg width="24" height="24" viewBox="0 0 24 24" fill="none" xmlns="http://www.w3.org/2000/svg">
<path d="M21.5832 16.1667H17.2498C16.6515 16.1667 16.1665 16.6517 16.1665 17.25V21.5833C16.1665 22.1816 16.6515 22.6667 17.2498 22.6667H21.5832C22.1815 22.6667 22.6665 22.1816 22.6665 21.5833V17.25C22.6665 16.6517 22.1815 16.1667 21.5832 16.1667Z" stroke="#1F41BB" stroke-width="2" stroke-linecap="round" stroke-linejoin="round"/>
<path d="M6.41667 16.1667H2.08333C1.48502 16.1667 1 16.6517 1 17.25V21.5833C1 22.1816 1.48502 22.6667 2.08333 22.6667H6.41667C7.01498 22.6667 7.5 22.1816 7.5 21.5833V17.25C7.5 16.6517 7.01498 16.1667 6.41667 16.1667Z" stroke="#1F41BB" stroke-width="2" stroke-linecap="round" stroke-linejoin="round"/>
<path d="M14.0002 1H9.66683C9.06852 1 8.5835 1.48502 8.5835 2.08333V6.41667C8.5835 7.01498 9.06852 7.5 9.66683 7.5H14.0002C14.5985 7.5 15.0835 7.01498 15.0835 6.41667V2.08333C15.0835 1.48502 14.5985 1 14.0002 1Z" stroke="#1F41BB" stroke-width="2" stroke-linecap="round" stroke-linejoin="round"/>
<path d="M4.25 16.1666V12.9166C4.25 12.6293 4.36414 12.3538 4.5673 12.1506C4.77047 11.9474 5.04602 11.8333 5.33333 11.8333H18.3333C18.6207 11.8333 18.8962 11.9474 19.0994 12.1506C19.3025 12.3538 19.4167 12.6293 19.4167 12.9166V16.1666M11.8333 11.8333V7.49997" stroke="#1F41BB" stroke-width="2" stroke-linecap="round" stroke-linejoin="round"/>
</svg>
