<svg width="30" height="32" viewBox="0 0 30 32" fill="none" xmlns="http://www.w3.org/2000/svg">
<path fill-rule="evenodd" clip-rule="evenodd" d="M25.4998 3.1115V8C26.0907 8 26.6759 8.11639 27.2218 8.34254C27.7678 8.56869 28.2639 8.90015 28.6818 9.31802C29.0996 9.73588 29.4311 10.232 29.6572 10.7779C29.8834 11.3239 29.9998 11.9091 29.9998 12.5C29.9998 13.0909 29.8834 13.6761 29.6572 14.2221C29.4311 14.768 29.0996 15.2641 28.6818 15.682C28.2639 16.0998 27.7678 16.4313 27.2218 16.6575C26.6759 16.8836 26.0907 17 25.4998 17V21.5C25.4998 23.972 22.6783 25.3835 20.6998 23.9L17.6098 21.581C15.958 20.3426 14.0349 19.5158 11.9998 19.169V23.435C11.9999 24.4156 11.6456 25.3632 11.0021 26.1032C10.3586 26.8431 9.46935 27.3255 8.4982 27.4614C7.52705 27.5974 6.5395 27.3776 5.71759 26.8428C4.89569 26.3079 4.29483 25.494 4.02577 24.551L1.67077 16.307C0.823301 15.3062 0.27178 14.0888 0.0782044 12.7918C-0.115371 11.4947 0.0566744 10.1694 0.575001 8.96471C1.09333 7.76006 1.93739 6.72386 3.0123 5.97259C4.08721 5.22132 5.35037 4.78477 6.65977 4.712L11.1868 4.46C13.4017 4.33697 15.5558 3.68971 17.4718 2.5715L20.9878 0.519498C22.9888 -0.646002 25.4998 0.795499 25.4998 3.1115ZM5.45077 18.617L6.91027 23.7275C6.98051 23.9749 7.13789 24.1885 7.35333 24.3289C7.56878 24.4693 7.82775 24.527 8.08242 24.4913C8.33709 24.4557 8.57026 24.3291 8.73887 24.1349C8.90749 23.9408 9.00016 23.6922 8.99977 23.435V18.92L6.65977 18.7895C6.25275 18.765 5.84841 18.7073 5.45077 18.617ZM22.4998 3.1115L18.9823 5.165C16.8462 6.41257 14.4629 7.17747 11.9998 7.406V16.1345C14.6803 16.5035 17.2318 17.549 19.4098 19.181L22.4998 21.5V3.1115ZM8.99977 7.586L6.82477 7.706C5.81294 7.76187 4.85882 8.19503 4.15075 8.91998C3.44267 9.64493 3.0321 10.609 3.00008 11.6219C2.96806 12.6347 3.31691 13.6228 3.97777 14.391C4.63864 15.1593 5.56349 15.6518 6.56977 15.7715L6.82477 15.794L8.99977 15.914V7.586ZM25.4998 11V14C25.8821 13.9996 26.2498 13.8532 26.5278 13.5907C26.8058 13.3283 26.9731 12.9696 26.9955 12.5879C27.0179 12.2062 26.8938 11.8304 26.6484 11.5372C26.403 11.2441 26.0549 11.0557 25.6753 11.0105L25.4998 11Z" fill="#1F41BB"/>
</svg>
