<svg width="36" height="36" viewBox="0 0 36 36" fill="none" xmlns="http://www.w3.org/2000/svg">
<path d="M18 3C26.2845 3 33 9.7155 33 18C33 26.2845 26.2845 33 18 33C9.7155 33 3 26.2845 3 18C3 9.7155 9.7155 3 18 3ZM18 6C14.8174 6 11.7652 7.26428 9.51472 9.51472C7.26428 11.7652 6 14.8174 6 18C6 21.1826 7.26428 24.2348 9.51472 26.4853C11.7652 28.7357 14.8174 30 18 30C21.1826 30 24.2348 28.7357 26.4853 26.4853C28.7357 24.2348 30 21.1826 30 18C30 14.8174 28.7357 11.7652 26.4853 9.51472C24.2348 7.26428 21.1826 6 18 6ZM11.25 15.75C11.8467 15.75 12.419 15.9871 12.841 16.409C13.2629 16.831 13.5 17.4033 13.5 18C13.5 18.5967 13.2629 19.169 12.841 19.591C12.419 20.0129 11.8467 20.25 11.25 20.25C10.6533 20.25 10.081 20.0129 9.65901 19.591C9.23705 19.169 9 18.5967 9 18C9 17.4033 9.23705 16.831 9.65901 16.409C10.081 15.9871 10.6533 15.75 11.25 15.75ZM18 15.75C18.5967 15.75 19.169 15.9871 19.591 16.409C20.0129 16.831 20.25 17.4033 20.25 18C20.25 18.5967 20.0129 19.169 19.591 19.591C19.169 20.0129 18.5967 20.25 18 20.25C17.4033 20.25 16.831 20.0129 16.409 19.591C15.9871 19.169 15.75 18.5967 15.75 18C15.75 17.4033 15.9871 16.831 16.409 16.409C16.831 15.9871 17.4033 15.75 18 15.75ZM24.75 15.75C25.3467 15.75 25.919 15.9871 26.341 16.409C26.7629 16.831 27 17.4033 27 18C27 18.5967 26.7629 19.169 26.341 19.591C25.919 20.0129 25.3467 20.25 24.75 20.25C24.1533 20.25 23.581 20.0129 23.159 19.591C22.7371 19.169 22.5 18.5967 22.5 18C22.5 17.4033 22.7371 16.831 23.159 16.409C23.581 15.9871 24.1533 15.75 24.75 15.75Z" fill="#1F41BB"/>
</svg>
