<svg width="36" height="36" viewBox="0 0 36 36" fill="none" xmlns="http://www.w3.org/2000/svg">
<path d="M26.4635 4.00677C26.7329 3.92267 27.0183 3.90309 27.2966 3.94962C27.575 3.99614 27.8385 4.10746 28.0659 4.2746C28.2933 4.44173 28.4782 4.65999 28.6057 4.91176C28.7332 5.16353 28.7997 5.44176 28.7999 5.72397V24.3C28.7999 25.3137 28.4576 26.2977 27.8285 27.0926C27.1994 27.8875 26.3204 28.4467 25.3338 28.6796C24.3472 28.9125 23.3109 28.8055 22.3927 28.3758C21.4745 27.9462 20.7283 27.2191 20.275 26.3124C19.8216 25.4057 19.6877 24.3725 19.8949 23.3802C20.1021 22.3879 20.6383 21.4946 21.4165 20.8451C22.1948 20.1956 23.1696 19.8278 24.183 19.8015C25.1964 19.7752 26.1889 20.0917 26.9999 20.7V11.124L14.3999 15.0624V27.9C14.3999 28.9137 14.0576 29.8977 13.4285 30.6926C12.7994 31.4875 11.9204 32.0467 10.9338 32.2796C9.9472 32.5125 8.91087 32.4055 7.9927 31.9758C7.07454 31.5462 6.32833 30.8191 5.87499 29.9124C5.42164 29.0057 5.28771 27.9725 5.4949 26.9802C5.70209 25.9879 6.23826 25.0946 7.01654 24.4451C7.79482 23.7956 8.76962 23.4278 9.78299 23.4015C10.7964 23.3752 11.7889 23.6917 12.5999 24.3V9.66237C12.5997 9.27856 12.7223 8.90474 12.9496 8.59549C13.1769 8.28624 13.4971 8.05775 13.8635 7.94337L26.4635 4.00677ZM14.3999 13.176L26.9999 9.23937V5.72397L14.3999 9.66237V13.176ZM9.89991 25.2C9.18382 25.2 8.49707 25.4844 7.99072 25.9908C7.48437 26.4971 7.19991 27.1839 7.19991 27.9C7.19991 28.6161 7.48437 29.3028 7.99072 29.8092C8.49707 30.3155 9.18382 30.6 9.89991 30.6C10.616 30.6 11.3027 30.3155 11.8091 29.8092C12.3154 29.3028 12.5999 28.6161 12.5999 27.9C12.5999 27.1839 12.3154 26.4971 11.8091 25.9908C11.3027 25.4844 10.616 25.2 9.89991 25.2ZM21.5999 24.3C21.5999 25.0161 21.8844 25.7028 22.3907 26.2092C22.8971 26.7155 23.5838 27 24.2999 27C25.016 27 25.7027 26.7155 26.2091 26.2092C26.7154 25.7028 26.9999 25.0161 26.9999 24.3C26.9999 23.5839 26.7154 22.8971 26.2091 22.3908C25.7027 21.8844 25.016 21.6 24.2999 21.6C23.5838 21.6 22.8971 21.8844 22.3907 22.3908C21.8844 22.8971 21.5999 23.5839 21.5999 24.3Z" fill="#1F41BB" stroke="#1F41BB"/>
</svg>
