<svg width="37" height="36" viewBox="0 0 37 36" fill="none" xmlns="http://www.w3.org/2000/svg">
<path d="M31.0835 23.7V12.3C31.0828 11.801 30.9518 11.3109 30.7034 10.8781C30.4551 10.4453 30.098 10.0849 29.6675 9.8325L19.7495 4.1325C19.3194 3.88276 18.8309 3.75122 18.3335 3.75122C17.8361 3.75122 17.3476 3.88276 16.9175 4.1325L6.9995 9.8325C6.56802 10.0837 6.21011 10.4439 5.9616 10.8769C5.71309 11.31 5.5827 11.8007 5.5835 12.3V23.703C5.58447 24.2017 5.71561 24.6916 5.96396 25.1241C6.21231 25.5566 6.56925 25.9168 6.9995 26.169L16.9175 31.869C17.3476 32.1187 17.8361 32.2503 18.3335 32.2503C18.8309 32.2503 19.3194 32.1187 19.7495 31.869L29.6675 26.169C30.0992 25.9177 30.4573 25.5573 30.7058 25.1239C30.9543 24.6906 31.0846 24.1995 31.0835 23.7Z" stroke="#1F41BB" stroke-width="3" stroke-linecap="round" stroke-linejoin="round"/>
<path d="M22.6956 14.55L22.8936 14.7465C24.4266 16.281 25.1946 17.0475 25.1946 18C25.1946 18.9525 24.4266 19.7205 22.8936 21.255L22.6956 21.45M19.9416 12L16.7271 24M13.9716 14.55L13.7736 14.7465C12.2406 16.281 11.4741 17.0475 11.4741 18C11.4741 18.9525 12.2391 19.7205 13.7736 21.255L13.9716 21.45" stroke="#1F41BB" stroke-width="3" stroke-linecap="round" stroke-linejoin="round"/>
</svg>
