<svg width="96" height="20" viewBox="0 0 96 20" fill="none" xmlns="http://www.w3.org/2000/svg">
<path d="M10.0002 13.4183L6.97516 15.245C6.88627 15.2889 6.80377 15.3067 6.72766 15.2983C6.65211 15.2894 6.5785 15.2633 6.50683 15.22C6.43461 15.1756 6.38016 15.1128 6.3435 15.0317C6.30683 14.9506 6.3035 14.8619 6.3335 14.7658L7.1385 11.3408L4.476 9.0325C4.401 8.97139 4.35155 8.89833 4.32766 8.81333C4.30377 8.72833 4.30905 8.64695 4.3435 8.56917C4.37794 8.49139 4.42377 8.4275 4.481 8.3775C4.53877 8.32917 4.61655 8.29639 4.71433 8.27917L8.22766 7.9725L9.59766 4.72917C9.63544 4.6375 9.68989 4.57139 9.761 4.53083C9.83211 4.49028 9.91183 4.47 10.0002 4.47C10.0885 4.47 10.1685 4.49028 10.2402 4.53083C10.3118 4.57139 10.366 4.6375 10.4027 4.72917L11.7727 7.9725L15.2852 8.27917C15.3835 8.29584 15.4616 8.32889 15.5193 8.37833C15.5771 8.42722 15.6232 8.49083 15.6577 8.56917C15.6916 8.64695 15.6966 8.72833 15.6727 8.81333C15.6488 8.89833 15.5993 8.97139 15.5243 9.0325L12.8618 11.3408L13.6668 14.7658C13.6979 14.8608 13.6949 14.9492 13.6577 15.0308C13.6204 15.1125 13.5657 15.1753 13.4935 15.2192C13.4224 15.2636 13.3488 15.29 13.2727 15.2983C13.1971 15.3067 13.1149 15.2889 13.026 15.245L10.0002 13.4183Z" fill="#FFE11C"/>
<path d="M29.0002 13.4183L25.9752 15.245C25.8863 15.2889 25.8038 15.3067 25.7277 15.2983C25.6521 15.2894 25.5785 15.2633 25.5068 15.22C25.4346 15.1756 25.3802 15.1128 25.3435 15.0317C25.3068 14.9506 25.3035 14.8619 25.3335 14.7658L26.1385 11.3408L23.476 9.0325C23.401 8.97139 23.3516 8.89833 23.3277 8.81333C23.3038 8.72833 23.3091 8.64695 23.3435 8.56917C23.3779 8.49139 23.4238 8.4275 23.481 8.3775C23.5388 8.32917 23.6166 8.29639 23.7143 8.27917L27.2277 7.9725L28.5977 4.72917C28.6354 4.6375 28.6899 4.57139 28.761 4.53083C28.8321 4.49028 28.9118 4.47 29.0002 4.47C29.0885 4.47 29.1685 4.49028 29.2402 4.53083C29.3118 4.57139 29.366 4.6375 29.4027 4.72917L30.7727 7.9725L34.2852 8.27917C34.3835 8.29584 34.4616 8.32889 34.5193 8.37833C34.5771 8.42722 34.6232 8.49083 34.6577 8.56917C34.6916 8.64695 34.6966 8.72833 34.6727 8.81333C34.6488 8.89833 34.5993 8.97139 34.5243 9.0325L31.8618 11.3408L32.6668 14.7658C32.6979 14.8608 32.6949 14.9492 32.6577 15.0308C32.6204 15.1125 32.5657 15.1753 32.4935 15.2192C32.4224 15.2636 32.3488 15.29 32.2727 15.2983C32.1971 15.3067 32.1149 15.2889 32.026 15.245L29.0002 13.4183Z" fill="#FFE11C"/>
<path d="M48.0002 13.4183L44.9752 15.245C44.8863 15.2889 44.8038 15.3067 44.7277 15.2983C44.6521 15.2894 44.5785 15.2633 44.5068 15.22C44.4346 15.1756 44.3802 15.1128 44.3435 15.0317C44.3068 14.9506 44.3035 14.8619 44.3335 14.7658L45.1385 11.3408L42.476 9.0325C42.401 8.97139 42.3516 8.89833 42.3277 8.81333C42.3038 8.72833 42.3091 8.64695 42.3435 8.56917C42.3779 8.49139 42.4238 8.4275 42.481 8.3775C42.5388 8.32917 42.6166 8.29639 42.7143 8.27917L46.2277 7.9725L47.5977 4.72917C47.6354 4.6375 47.6899 4.57139 47.761 4.53083C47.8321 4.49028 47.9118 4.47 48.0002 4.47C48.0885 4.47 48.1685 4.49028 48.2402 4.53083C48.3118 4.57139 48.366 4.6375 48.4027 4.72917L49.7727 7.9725L53.2852 8.27917C53.3835 8.29584 53.4616 8.32889 53.5193 8.37833C53.5771 8.42722 53.6232 8.49083 53.6577 8.56917C53.6916 8.64695 53.6966 8.72833 53.6727 8.81333C53.6488 8.89833 53.5993 8.97139 53.5243 9.0325L50.8618 11.3408L51.6668 14.7658C51.6979 14.8608 51.6949 14.9492 51.6577 15.0308C51.6204 15.1125 51.5657 15.1753 51.4935 15.2192C51.4224 15.2636 51.3488 15.29 51.2727 15.2983C51.1971 15.3067 51.1149 15.2889 51.026 15.245L48.0002 13.4183Z" fill="#FFE11C"/>
<path d="M67.0002 13.4183L63.9752 15.245C63.8863 15.2889 63.8038 15.3067 63.7277 15.2983C63.6521 15.2894 63.5785 15.2633 63.5068 15.22C63.4346 15.1756 63.3802 15.1128 63.3435 15.0317C63.3068 14.9506 63.3035 14.8619 63.3335 14.7658L64.1385 11.3408L61.476 9.0325C61.401 8.97139 61.3516 8.89833 61.3277 8.81333C61.3038 8.72833 61.3091 8.64695 61.3435 8.56917C61.3779 8.49139 61.4238 8.4275 61.481 8.3775C61.5388 8.32917 61.6166 8.29639 61.7143 8.27917L65.2277 7.9725L66.5977 4.72917C66.6354 4.6375 66.6899 4.57139 66.761 4.53083C66.8321 4.49028 66.9118 4.47 67.0002 4.47C67.0885 4.47 67.1685 4.49028 67.2402 4.53083C67.3118 4.57139 67.366 4.6375 67.4027 4.72917L68.7727 7.9725L72.2852 8.27917C72.3835 8.29584 72.4616 8.32889 72.5193 8.37833C72.5771 8.42722 72.6232 8.49083 72.6577 8.56917C72.6916 8.64695 72.6966 8.72833 72.6727 8.81333C72.6488 8.89833 72.5993 8.97139 72.5243 9.0325L69.8618 11.3408L70.6668 14.7658C70.6979 14.8608 70.6949 14.9492 70.6577 15.0308C70.6204 15.1125 70.5657 15.1753 70.4935 15.2192C70.4224 15.2636 70.3488 15.29 70.2727 15.2983C70.1971 15.3067 70.1149 15.2889 70.026 15.245L67.0002 13.4183Z" fill="#FFE11C"/>
<path d="M86.0005 4.87039C86.0147 4.87042 86.0237 4.87405 86.0308 4.87625V4.8782L86.0347 4.88504L87.4038 8.1282L87.4976 8.34988L87.7378 8.37137L91.2339 8.67606C91.2678 8.68353 91.2697 8.69087 91.2593 8.68192L91.2612 8.68387C91.2656 8.68757 91.2706 8.69677 91.2798 8.71317C91.2776 8.71533 91.2757 8.71887 91.272 8.72195L91.2622 8.73074L88.6001 11.0384L88.4175 11.1966L88.4722 11.4319L89.2778 14.8577L89.2817 14.8743L89.2827 14.8782L89.2817 14.8802C89.2603 14.8935 89.2446 14.8969 89.2339 14.8987C89.229 14.8973 89.2214 14.894 89.2104 14.8889L86.2065 13.0755L86.0005 12.9514L85.7935 13.0755L82.7896 14.8889C82.7793 14.8936 82.7719 14.8963 82.7671 14.8977C82.7547 14.8953 82.7381 14.8911 82.7163 14.8782L82.7192 14.8714L82.7231 14.8577L83.5278 11.4319L83.5835 11.1966L83.4009 11.0384L80.7378 8.73074V8.72977L80.729 8.72195L80.7202 8.71317C80.7288 8.69761 80.7356 8.6878 80.7417 8.68192C80.7475 8.67976 80.7571 8.67886 80.77 8.67606L84.2622 8.37137L84.5024 8.34988L84.5962 8.1282L85.9663 4.88504L85.9673 4.88113C85.9682 4.87904 85.9685 4.87693 85.9692 4.87527C85.9759 4.87309 85.9856 4.87039 86.0005 4.87039Z" fill="#FDFDFD" stroke="#FFE11C" stroke-width="0.8"/>
</svg>
