<svg width="20" height="20" viewBox="0 0 20 20" fill="none" xmlns="http://www.w3.org/2000/svg">
<path d="M10.0002 13.4183L6.97516 15.245C6.88627 15.2889 6.80377 15.3067 6.72766 15.2983C6.65211 15.2894 6.5785 15.2633 6.50683 15.22C6.43461 15.1756 6.38016 15.1128 6.3435 15.0317C6.30683 14.9506 6.3035 14.8619 6.3335 14.7658L7.1385 11.3408L4.476 9.0325C4.401 8.97139 4.35155 8.89833 4.32766 8.81333C4.30377 8.72833 4.30905 8.64695 4.3435 8.56917C4.37794 8.49139 4.42377 8.4275 4.481 8.3775C4.53877 8.32917 4.61655 8.29639 4.71433 8.27917L8.22766 7.9725L9.59766 4.72917C9.63544 4.6375 9.68989 4.57139 9.761 4.53083C9.83211 4.49028 9.91183 4.47 10.0002 4.47C10.0885 4.47 10.1685 4.49028 10.2402 4.53083C10.3118 4.57139 10.366 4.6375 10.4027 4.72917L11.7727 7.9725L15.2852 8.27917C15.3835 8.29584 15.4616 8.32889 15.5193 8.37833C15.5771 8.42722 15.6232 8.49083 15.6577 8.56917C15.6916 8.64695 15.6966 8.72833 15.6727 8.81333C15.6488 8.89833 15.5993 8.97139 15.5243 9.0325L12.8618 11.3408L13.6668 14.7658C13.6979 14.8608 13.6949 14.9492 13.6577 15.0308C13.6204 15.1125 13.5657 15.1753 13.4935 15.2192C13.4224 15.2636 13.3488 15.29 13.2727 15.2983C13.1971 15.3067 13.1149 15.2889 13.026 15.245L10.0002 13.4183Z" fill="#FFE11C"/>
</svg>
