<svg width="40" height="40" viewBox="0 0 40 40" fill="none" xmlns="http://www.w3.org/2000/svg">
<rect width="40" height="40" rx="6" fill="#A41FBB"/>
<path d="M19.9996 12.5C19.5355 12.5 19.0904 12.6844 18.7622 13.0125C18.434 13.3407 18.2497 13.7858 18.2497 14.25C18.2497 14.7141 18.434 15.1592 18.7622 15.4874C19.0904 15.8156 19.5355 15.9999 19.9996 15.9999C20.4637 15.9999 20.9088 15.8156 21.237 15.4874C21.5651 15.1592 21.7495 14.7141 21.7495 14.25C21.7495 13.7858 21.5651 13.3407 21.237 13.0125C20.9088 12.6844 20.4637 12.5 19.9996 12.5ZM16.7497 14.25C16.7497 13.388 17.0921 12.5614 17.7016 11.9519C18.3111 11.3424 19.1377 11 19.9996 11C20.8615 11 21.6881 11.3424 22.2976 11.9519C22.9071 12.5614 23.2494 13.388 23.2494 14.25C23.2494 15.1119 22.9071 15.9385 22.2976 16.548C21.6881 17.1575 20.8615 17.4999 19.9996 17.4999C19.1377 17.4999 18.3111 17.1575 17.7016 16.548C17.0921 15.9385 16.7497 15.1119 16.7497 14.25ZM12.9999 14.5C12.6021 14.5 12.2206 14.658 11.9393 14.9393C11.658 15.2206 11.4999 15.6021 11.4999 15.9999C11.4999 16.3977 11.658 16.7793 11.9393 17.0606C12.2206 17.3419 12.6021 17.4999 12.9999 17.4999C13.3977 17.4999 13.7792 17.3419 14.0605 17.0606C14.3418 16.7793 14.4998 16.3977 14.4998 15.9999C14.4998 15.6021 14.3418 15.2206 14.0605 14.9393C13.7792 14.658 13.3977 14.5 12.9999 14.5ZM10 15.9999C10 15.2043 10.3161 14.4412 10.8786 13.8786C11.4412 13.316 12.2043 13 12.9999 13C13.7955 13 14.5585 13.316 15.1211 13.8786C15.6837 14.4412 15.9998 15.2043 15.9998 15.9999C15.9998 16.7956 15.6837 17.5586 15.1211 18.1212C14.5585 18.6838 13.7955 18.9999 12.9999 18.9999C12.2043 18.9999 11.4412 18.6838 10.8786 18.1212C10.3161 17.5586 10 16.7956 10 15.9999ZM25.4994 15.9999C25.4994 15.6021 25.6574 15.2206 25.9387 14.9393C26.22 14.658 26.6015 14.5 26.9993 14.5C27.3971 14.5 27.7786 14.658 28.0599 14.9393C28.3412 15.2206 28.4992 15.6021 28.4992 15.9999C28.4992 16.3977 28.3412 16.7793 28.0599 17.0606C27.7786 17.3419 27.3971 17.4999 26.9993 17.4999C26.6015 17.4999 26.22 17.3419 25.9387 17.0606C25.6574 16.7793 25.4994 16.3977 25.4994 15.9999ZM26.9993 13C26.2037 13 25.4406 13.316 24.8781 13.8786C24.3155 14.4412 23.9994 15.2043 23.9994 15.9999C23.9994 16.7956 24.3155 17.5586 24.8781 18.1212C25.4406 18.6838 26.2037 18.9999 26.9993 18.9999C27.7949 18.9999 28.5579 18.6838 29.1205 18.1212C29.6831 17.5586 29.9992 16.7956 29.9992 15.9999C29.9992 15.2043 29.6831 14.4412 29.1205 13.8786C28.5579 13.316 27.7949 13 26.9993 13ZM15.4998 20.7499C15.4998 19.7839 16.2837 18.9999 17.2497 18.9999H22.7495C23.7154 18.9999 24.4994 19.7839 24.4994 20.7499V24.4998C24.4994 25.6933 24.0253 26.8378 23.1814 27.6817C22.3376 28.5256 21.193 28.9997 19.9996 28.9997C18.8062 28.9997 17.6616 28.5256 16.8177 27.6817C15.9739 26.8378 15.4998 25.6933 15.4998 24.4998V20.7499ZM17.2497 20.4999C17.1834 20.4999 17.1198 20.5262 17.0729 20.5731C17.026 20.62 16.9997 20.6836 16.9997 20.7499V24.4998C16.9997 25.2954 17.3158 26.0585 17.8784 26.6211C18.4409 27.1837 19.204 27.4998 19.9996 27.4998C20.7952 27.4998 21.5582 27.1837 22.1208 26.6211C22.6834 26.0585 22.9995 25.2954 22.9995 24.4998V20.7499C22.9995 20.6836 22.9731 20.62 22.9262 20.5731C22.8794 20.5262 22.8158 20.4999 22.7495 20.4999H17.2497ZM14.6098 19.9779C14.5371 20.2239 14.5005 20.4812 14.4998 20.7499V21.5599L11.6859 22.3138C11.6219 22.331 11.5673 22.3728 11.5341 22.4302C11.5009 22.4876 11.4918 22.5558 11.5089 22.6198L12.2209 25.2768C12.4035 25.9584 12.8205 26.5537 13.3986 26.9583C13.9767 27.3628 14.6789 27.5507 15.3818 27.4888C15.6968 27.9748 16.0867 28.4078 16.5347 28.7707C15.9528 28.9637 15.3376 29.0357 14.7269 28.9823C14.1162 28.929 13.5228 28.7514 12.9831 28.4604C12.4435 28.1695 11.969 27.7714 11.5888 27.2904C11.2085 26.8095 10.9306 26.256 10.772 25.6638L10.06 23.0078C9.93995 22.5596 10.0028 22.0821 10.2348 21.6802C10.4667 21.2784 10.8488 20.9851 11.2969 20.8649L14.6098 19.9779ZM23.4644 28.7707C23.5478 28.7987 23.6321 28.8241 23.7174 28.8467C24.8701 29.1555 26.0983 28.9938 27.1318 28.397C28.1652 27.8003 28.9193 26.8175 29.2282 25.6648L29.9402 23.0088C29.9998 22.7868 30.015 22.5553 29.9851 22.3274C29.9552 22.0995 29.8807 21.8797 29.7658 21.6806C29.6509 21.4815 29.498 21.307 29.3157 21.167C29.1333 21.0271 28.9252 20.9244 28.7032 20.8649L25.3894 19.9769C25.462 20.2235 25.4987 20.4812 25.4994 20.7499V21.5599L28.3152 22.3138C28.3791 22.3312 28.4335 22.3731 28.4665 22.4305C28.4995 22.4878 28.5084 22.5559 28.4912 22.6198L27.7793 25.2768C27.5966 25.9585 27.1795 26.5541 26.6012 26.9586C26.0228 27.3632 25.3204 27.5509 24.6174 27.4888C24.3029 27.9741 23.9138 28.4067 23.4644 28.7707Z" fill="#FEFEFE"/>
</svg>
